<?xml version="1.0" encoding="UTF-8" standalone="no"?>
<!-- Created with Inkscape (http://www.inkscape.org/) -->

<svg
   xmlns:dc="http://purl.org/dc/elements/1.1/"
   xmlns:cc="http://creativecommons.org/ns#"
   xmlns:rdf="http://www.w3.org/1999/02/22-rdf-syntax-ns#"
   xmlns:svg="http://www.w3.org/2000/svg"
   xmlns="http://www.w3.org/2000/svg"
   xmlns:sodipodi="http://sodipodi.sourceforge.net/DTD/sodipodi-0.dtd"
   xmlns:inkscape="http://www.inkscape.org/namespaces/inkscape"
   width="744.09448"
   height="1052.3622"
   id="svg2"
   version="1.1"
   inkscape:version="0.47 r22583"
   sodipodi:docname="Nouveau document 1">
  <defs
     id="defs4">
    <inkscape:perspective
       sodipodi:type="inkscape:persp3d"
       inkscape:vp_x="0 : 526.18109 : 1"
       inkscape:vp_y="0 : 1000 : 0"
       inkscape:vp_z="744.09448 : 526.18109 : 1"
       inkscape:persp3d-origin="372.04724 : 350.78739 : 1"
       id="perspective10" />
  </defs>
  <sodipodi:namedview
     id="base"
     pagecolor="#ffffff"
     bordercolor="#666666"
     borderopacity="1.0"
     inkscape:pageopacity="0.0"
     inkscape:pageshadow="2"
     inkscape:zoom="1.9029841"
     inkscape:cx="354.88122"
     inkscape:cy="1040.2275"
     inkscape:document-units="px"
     inkscape:current-layer="layer1"
     showgrid="false"
     showguides="true"
     inkscape:guide-bbox="true"
     inkscape:window-width="1920"
     inkscape:window-height="1006"
     inkscape:window-x="0"
     inkscape:window-y="25"
     inkscape:window-maximized="1">
    <inkscape:grid
       type="axonomgrid"
       id="grid2816"
       units="mm"
       empspacing="5"
       visible="true"
       enabled="true"
       snapvisiblegridlinesonly="true" />
    <sodipodi:guide
       orientation="1,0"
       position="0,1194.2857"
       id="guide2818" />
    <sodipodi:guide
       orientation="1,0"
       position="743.91895,1118.8188"
       id="guide2820" />
    <sodipodi:guide
       orientation="0,1"
       position="0,1052.17"
       id="guide2822" />
    <sodipodi:guide
       orientation="0,1"
       position="0,0"
       id="guide2824" />
    <sodipodi:guide
       orientation="0,1"
       position="0,945.45996"
       id="guide2826" />
    <sodipodi:guide
       orientation="1,0"
       position="290.59622,1052.17"
       id="guide3691" />
  </sodipodi:namedview>
  <metadata
     id="metadata7">
    <rdf:RDF>
      <cc:Work
         rdf:about="">
        <dc:format>image/svg+xml</dc:format>
        <dc:type
           rdf:resource="http://purl.org/dc/dcmitype/StillImage" />
        <dc:title></dc:title>
      </cc:Work>
    </rdf:RDF>
  </metadata>
  <g
     inkscape:label="Calque 1"
     inkscape:groupmode="layer"
     id="layer1"
     transform="translate(0,3.9490035e-5)">
    <g
       id="g3682"
       transform="matrix(1.792706,0,0,1.792706,-508.50651,-44.873988)">
      <path
         sodipodi:nodetypes="ccccccsccsssccccsccscccccssscc"
         d="m 291.11817,64.960311 -1.64,1.64 2.8,0 c 10.87999,0 11,-1e-6 14.32,-1.6 l 0.08,-0.36 c -2.24,0.24 -3.2,0.28 -6.72,0.32 0.12,-0.519999 0.24,-1.04 0.36,-1.52 0.16,-0.679999 0.32,-1.360001 0.52,-2.36 0.52,-2.159997 0.56,-2.400001 1,-4.04 2.64,-0.159999 4.84,-0.800001 7.28,-2.12 2.88,-1.559998 4.68,-4.360003 4.68,-7.32 0,-2.719997 -2.24001,-4.04 -6.84,-4.04 -0.4,0 -0.84,0 -1.76,0.04 l 1.85543,-7.461715 c -1.43181,3.943818 -2.86362,6.212448 -4.29543,7.821715 -3.16,0.32 -4.96,0.880002 -6.92,2.04 -3.16,1.919998 -4.88,4.640004 -4.88,7.8 0,1.159999 0.16,1.960002 0.68,3.24 l 3,-1.8 c -0.48,-1.399998 -0.6,-2.040001 -0.6,-3 0,-2.119998 0.92,-4.160001 2.4,-5.32 1.36,-1.039999 2.72,-1.52 5.36,-1.8 -1.4,6.279994 -3.44,14.560006 -4.96,19.84 l -5.72,0 m 13.76,-20.16 c 0.6,-0.04 1.24,-0.08 1.56,-0.08 2.52,0 3.88,1.240003 3.88,3.56 0,4.239996 -2.84,7.36 -6.68,7.36 -0.44,0 -0.76,-0.04 -1.4,-0.16 l 2.64,-10.68"
         style="font-size:40px;font-style:italic;font-variant:normal;font-weight:bold;font-stretch:normal;fill:#000000;fill-opacity:1;stroke:none;font-family:URW Chancery L;-inkscape-font-specification:URW Chancery L Bold Italic"
         id="path2851" />
      <path
         d="m 323.92067,50.200311 c -1.6,0 -4.16,1.160002 -6.52,2.92 -2.56,1.919998 -4.36,6.080004 -4.36,10.04 0,2.439998 1.36,4 3.48,4 1.12,0 2.24,-0.400001 4.08,-1.36 2,-1.119999 3.32,-2.120001 4.04,-3.08 1.6,-2.159997 2.88,-6.080002 2.88,-8.84 0,-2.159997 -1.48,-3.68 -3.6,-3.68 m -2.08,1.88 c 1.6,0 2.6,1.560003 2.6,3.96 0,1.679999 -0.56,3.760002 -1.56,5.72 -1.12,2.279998 -2.56,3.52 -4.08,3.52 -1.64,0 -2.68,-1.480002 -2.68,-3.76 0,-4.639995 2.92,-9.44 5.72,-9.44"
         style="font-size:40px;font-style:italic;font-variant:normal;font-weight:bold;font-stretch:normal;fill:#000000;fill-opacity:1;stroke:none;font-family:URW Chancery L;-inkscape-font-specification:URW Chancery L Bold Italic"
         id="path2853" />
      <path
         sodipodi:nodetypes="ccsscccsscsccccsscsscsssccssccsscc"
         d="m 332.09629,65.960311 2.56,-9.72 c 2.68,-1.799998 4.32,-2.76 4.84,-2.76 0.32,0 0.52,0.360001 0.52,0.88 0,1.199999 -5.77886,24.902864 -7.45886,30.302858 l 7.29886,-18.702858 2.48,-10 c 2.32,-1.479998 4.48,-2.68 4.96,-2.68 0.32,0 0.52,0.280001 0.52,0.76 0,0.879999 -0.36,2.520005 -1.44,6.8 -0.64,2.479998 -0.84,3.480001 -0.84,4.4 0,0.84 0.24,1.280001 0.96,1.8 2.36,-1.159998 4.36001,-2.440002 6.8,-4.36 l 13.51086,-9.584572 c -0.4,0.2 -14.35086,9.144573 -14.87086,9.504572 -1.43999,0.919999 -2.12,1.24 -2.6,1.24 -0.44,0 -0.72,-0.4 -0.72,-1.08 0,-0.879999 0.52,-3.160002 1.32,-5.96 1.2,-4.119996 1.52,-5.4 1.52,-6 0,-0.399999 -0.24,-0.6 -0.64,-0.6 -0.72,0 -3.2,1.280003 -8.08,4.16 0.12,-0.439999 0.16,-0.76 0.2,-0.92 0.48,-1.999998 0.6,-2.56 0.6,-2.8 0,-0.279999 -0.2,-0.44 -0.52,-0.44 -0.6,0 -2.68,1.120003 -6.68,3.68 l -1.28,0.8 c 0.72,-2.919997 0.88,-3.64 0.88,-3.92 0,-0.319999 -0.24,-0.56 -0.6,-0.56 -0.48,0 -3.64,1.720002 -6.24,3.36 l -0.28,1.12 c 2.2,-1.079999 2.52,-1.2 2.96,-1.2 0.36,0 0.6,0.320001 0.6,0.76 0,0.64 -1.44,6.560007 -3.12,12.8 l 2.84,-1.08"
         style="font-size:40px;font-style:italic;font-variant:normal;font-weight:bold;font-stretch:normal;fill:#000000;fill-opacity:1;stroke:none;font-family:URW Chancery L;-inkscape-font-specification:URW Chancery L Bold Italic"
         id="path2855" />
      <path
         d="m 358.30349,40.604565 c 2.19404,-3.224957 22.30708,-3.350527 27.47162,-2.744996 0,0 -9.19885,0.837214 -13.07029,3.08455 -0.75265,0.436907 -1.46185,1.099454 -1.78087,1.909143 -1.27511,3.236295 0,10.4353 0,10.4353 -10e-6,0.728047 -0.0375,4.191 0.18127,4.514572 1.17548,0.739737 6.15601,-6.204723 6.15601,-6.204723 l -3.42563,9.041775 c -4.11427,-0.188703 -4.77672,9.442765 -4.77672,9.442765 0,0 1.49761,-12.96836 -0.70524,-17.09774 l 0,-10.131949 c 0,-0.351925 -5.65149,-2.199274 -5.64649,0 0,0 -1.04637,10.596535 0.61753,13.097761 -2.4,2.630695 -1.12033,6.350459 -1.62806,7.173049 l -11.73368,19.009975 c 8.1353,-16.168824 13.67195,-39.652744 10.17391,-39.280785 -2.25158,0.239419 -6.67357,3.989871 -6.67357,3.989871 1.17233,-1.541047 4.18284,-5.272319 4.84021,-6.238568 z"
         style="font-size:28px;font-style:normal;font-variant:normal;font-weight:normal;font-stretch:normal;fill:#000000;fill-opacity:1;stroke:none;font-family:Balker;-inkscape-font-specification:Balker"
         id="path2857"
         sodipodi:nodetypes="ccsaccccccsccscscs" />
      <path
         sodipodi:nodetypes="ccsscsccscscscsscsscccsscscc"
         d="m 394.80786,61.400311 c -0.52,0.32 -0.92,0.6 -1.12,0.72 -2.2,1.519999 -3.32,2.16 -3.68,2.16 -0.32,0 -0.56,-0.44 -0.56,-1.04 0,-1.319998 3.36,-15.800002 4.2,-18.28 0.88,-2.399997 1.76,-3.32 3.2,-3.32 0.52,0 3.01486,3.110286 3.01486,3.110286 0,0 -0.52898,-3.522474 -1.64229,-4.749715 -0.5301,-0.300685 -0.89257,-0.28057 -1.81257,0.239429 -1,0.56 -2.36,1.600001 -3.48,2.64 -1.96,1.879998 -2.08,2.160004 -3.12,6.28 -0.04,0.16 -0.16,0.680001 -0.32,1.28 -0.72,-0.159999 -1.32,-0.24 -1.64,-0.24 -1.24,0 -4.68001,2.160002 -6.28,3.92 -1.36,1.559999 -3.16,7.200003 -3.16,9.96 0,1.519999 0.8,3.08 1.52,3.08 0.76,0 2.52,-1.080003 6.72,-4.12 -0.2,0.999999 -0.32,2.160001 -0.32,2.88 0,0.8 0.32,1.24 0.88,1.24 0.64,0 4.12,-2.120002 7.44,-4.52 l 11.02743,-8.729715 m -18.70743,7.649715 c -3.4,2.399998 -4.28,2.92 -4.84,2.92 -0.56,0 -0.84,-0.600001 -0.84,-1.76 0,-1.319998 0.24,-2.840001 0.72,-4.6 1.16,-4.039996 2.72,-6.04 4.76,-6.04 0.72,0 1.24,0.280001 2.08,1.08 l -1.88,8.4"
         style="font-size:40px;font-style:italic;font-variant:normal;font-weight:bold;font-stretch:normal;fill:#000000;fill-opacity:1;stroke:none;font-family:URW Chancery L;-inkscape-font-specification:URW Chancery L Bold Italic"
         id="path2859" />
      <path
         d="m 406.86598,50.200311 c -1.6,0 -4.16,1.160002 -6.52,2.92 -2.56,1.919998 -4.36,6.080004 -4.36,10.04 0,2.439998 1.36,4 3.48,4 1.12,0 2.24,-0.400001 4.08,-1.36 2,-1.119999 3.32,-2.120001 4.04,-3.08 1.6,-2.159997 2.88,-6.080002 2.88,-8.84 0,-2.159997 -1.48,-3.68 -3.6,-3.68 m -2.08,1.88 c 1.6,0 2.6,1.560003 2.6,3.96 0,1.679999 -0.56,3.760002 -1.56,5.72 -1.12,2.279998 -2.56,3.52 -4.08,3.52 -1.64,0 -2.68,-1.480002 -2.68,-3.76 0,-4.639995 2.92,-9.44 5.72,-9.44"
         style="font-size:40px;font-style:italic;font-variant:normal;font-weight:bold;font-stretch:normal;fill:#000000;fill-opacity:1;stroke:none;font-family:URW Chancery L;-inkscape-font-specification:URW Chancery L Bold Italic"
         id="path2861" />
      <path
         sodipodi:nodetypes="csscssccssccssccccssccssscc"
         d="m 411.80161,54.640311 c 1.67999,-0.839999 2.44,-1.16 2.92,-1.16 0.32,0 0.56,0.320001 0.56,0.76 0,0.52 -0.4,2.240003 -1.12,4.96 -1,3.719997 -1.24,4.840002 -1.24,6 0,1.119999 0.48,1.96 1.12,1.96 0.6,0 1.32,-0.360001 3.32,-1.68 l 4.12,-2.68 c -0.32,1.279999 -0.56,2.720001 -0.56,3.44 0,0.52 0.32,0.92 0.72,0.92 0.8,0 4.6,-2.240002 7.32,-4.28 l 12.32229,-8.836572 c -3.12,1.839999 -16.20229,10.036572 -16.64229,10.036572 -0.28,0 -0.44,-0.32 -0.44,-0.96 0,-2.039998 2.94857,-11.524577 4.66857,-16.604572 -0.52,0.28 -1.32478,3.011444 -2.50857,4.084572 -0.71798,0.438576 -1.51562,0.755383 -2.28,1.12 -0.24,0.919999 -1.04,4.120006 -2.36,9.64 -3.08,2.119998 -4.48,2.92 -4.96,2.92 -0.44,0 -0.76,-0.56 -0.76,-1.32 0,-0.919999 0.32,-2.520002 1,-5.08 0.44,-1.599998 0.72,-2.72 0.84,-3.28 0.36,-1.479998 0.64,-2.52 0.72,-2.8 0.12,-0.439999 0.2,-0.8 0.2,-1.08 0,-0.319999 -0.2,-0.52 -0.48,-0.52 -0.4,0 -3.32001,1.560002 -6.2,3.36 l -0.28,1.08"
         style="font-size:40px;font-style:italic;font-variant:normal;font-weight:bold;font-stretch:normal;fill:#000000;fill-opacity:1;stroke:none;font-family:URW Chancery L;-inkscape-font-specification:URW Chancery L Bold Italic"
         id="path2863" />
    </g>
  </g>
</svg>
