<?xml version="1.0" encoding="UTF-8" standalone="no"?>
<!-- Created with Inkscape (http://www.inkscape.org/) -->

<svg
   xmlns:dc="http://purl.org/dc/elements/1.1/"
   xmlns:cc="http://creativecommons.org/ns#"
   xmlns:rdf="http://www.w3.org/1999/02/22-rdf-syntax-ns#"
   xmlns:svg="http://www.w3.org/2000/svg"
   xmlns="http://www.w3.org/2000/svg"
   xmlns:sodipodi="http://sodipodi.sourceforge.net/DTD/sodipodi-0.dtd"
   xmlns:inkscape="http://www.inkscape.org/namespaces/inkscape"
   width="210mm"
   height="297mm"
   id="svg2"
   version="1.1"
   inkscape:version="0.47 r22583"
   sodipodi:docname="Nouveau document 1">
  <defs
     id="defs4">
    <inkscape:perspective
       sodipodi:type="inkscape:persp3d"
       inkscape:vp_x="0 : 526.18109 : 1"
       inkscape:vp_y="0 : 1000 : 0"
       inkscape:vp_z="744.09448 : 526.18109 : 1"
       inkscape:persp3d-origin="372.04724 : 350.78739 : 1"
       id="perspective10" />
  </defs>
  <sodipodi:namedview
     id="base"
     pagecolor="#ffffff"
     bordercolor="#666666"
     borderopacity="1.0"
     inkscape:pageopacity="0.0"
     inkscape:pageshadow="2"
     inkscape:zoom="0.88294273"
     inkscape:cx="146.09017"
     inkscape:cy="473.87322"
     inkscape:document-units="px"
     inkscape:current-layer="layer1"
     showgrid="false"
     showguides="true"
     inkscape:guide-bbox="true"
     inkscape:window-width="1412"
     inkscape:window-height="736"
     inkscape:window-x="419"
     inkscape:window-y="25"
     inkscape:window-maximized="0" />
  <metadata
     id="metadata7">
    <rdf:RDF>
      <cc:Work
         rdf:about="">
        <dc:format>image/svg+xml</dc:format>
        <dc:type
           rdf:resource="http://purl.org/dc/dcmitype/StillImage" />
        <dc:title></dc:title>
      </cc:Work>
    </rdf:RDF>
  </metadata>
  <g
     inkscape:label="Calque 1"
     inkscape:groupmode="layer"
     id="layer1">
    <rect
       style="fill:#0000ff;fill-opacity:1;stroke:none;stroke-width:1.49832118000000003;stroke-linejoin:miter;stroke-miterlimit:4;stroke-opacity:1;stroke-dasharray:none;stroke-dashoffset:0.04150000000000000"
       id="rect2824"
       width="149.50168"
       height="150.04068"
       x="-334.61185"
       y="402.32507"
       ry="31.021399" />
    <text
       xml:space="preserve"
       style="font-size:144px;font-style:normal;font-variant:normal;font-weight:normal;font-stretch:normal;fill:#000000;fill-opacity:1;stroke:none;font-family:Bitstream Charter;-inkscape-font-specification:Bitstream Charter"
       x="-179.99998"
       y="535.2193"
       id="text2816"><tspan
         sodipodi:role="line"
         id="tspan2818"
         x="-179.99998"
         y="535.2193">acebook </tspan></text>
    <text
       xml:space="preserve"
       style="font-size:144px;font-style:normal;font-variant:normal;font-weight:normal;font-stretch:normal;fill:#ffffff;fill-opacity:1;stroke:none;font-family:Bitstream Charter;-inkscape-font-specification:Bitstream Charter"
       x="-298.08435"
       y="527.22107"
       id="text2820"><tspan
         sodipodi:role="line"
         id="tspan2822"
         x="-298.08435"
         y="527.22107">F</tspan></text>
    <path
       sodipodi:type="arc"
       style="fill:#000000;fill-opacity:1;stroke:none"
       id="path3604"
       sodipodi:cx="144.31296"
       sodipodi:cy="503.84525"
       sodipodi:rx="6.385529"
       sodipodi:ry="7.0240817"
       d="m 150.69849,503.84525 a 6.385529,7.0240817 0 1 1 -12.77106,0 6.385529,7.0240817 0 1 1 12.77106,0 z"
       transform="matrix(0.93983237,0,0,0.66376707,5.7747752,184.08756)" />
    <path
       transform="matrix(0.93983237,0,0,0.66376707,84.972845,184.08756)"
       d="m 150.69849,503.84525 a 6.385529,7.0240817 0 1 1 -12.77106,0 6.385529,7.0240817 0 1 1 12.77106,0 z"
       sodipodi:ry="7.0240817"
       sodipodi:rx="6.385529"
       sodipodi:cy="503.84525"
       sodipodi:cx="144.31296"
       id="path3606"
       style="fill:#000000;fill-opacity:1;stroke:none"
       sodipodi:type="arc" />
    <path
       sodipodi:type="arc"
       style="fill:none;stroke:#000000;stroke-opacity:1"
       id="path3660"
       sodipodi:cx="-86.843193"
       sodipodi:cy="618.78479"
       sodipodi:rx="40.867386"
       sodipodi:ry="37.674622"
       d="m -45.975807,618.78479 a 40.867386,37.674622 0 1 1 -81.734773,0 40.867386,37.674622 0 1 1 81.734773,0 z"
       transform="matrix(0.71563832,0,0,0.71563832,-44.859222,170.2117)" />
    <path
       style="fill:none;stroke:#000000;stroke-width:1px;stroke-linecap:butt;stroke-linejoin:miter;stroke-opacity:1"
       d="m -108.55399,639.85701 0,86.84319"
       id="path3662" />
    <path
       style="fill:none;stroke:#000000;stroke-width:1.1598388px;stroke-linecap:butt;stroke-linejoin:miter;stroke-opacity:1"
       d="m -53.718363,646.23793 -55.192857,19.08127 -57.03262,-20.27385"
       id="path3664" />
    <path
       style="fill:none;stroke:#000000;stroke-width:1.48326123px;stroke-linecap:butt;stroke-linejoin:miter;stroke-opacity:1"
       d="m -108.79562,724.38762 -37.82991,49.32387"
       id="path3666" />
    <path
       id="path3668"
       d="m -107.30477,724.39521 39.64606,48.03159"
       style="fill:none;stroke:#000000;stroke-width:1.49842513px;stroke-linecap:butt;stroke-linejoin:miter;stroke-opacity:1" />
    <path
       sodipodi:type="arc"
       style="fill:none;stroke:#000000;stroke-width:1.5;stroke-linejoin:miter;stroke-miterlimit:4;stroke-opacity:1;stroke-dasharray:none;stroke-dashoffset:0.0415"
       id="path3670"
       sodipodi:cx="-117.88171"
       sodipodi:cy="604.50635"
       sodipodi:rx="6.1544671"
       sodipodi:ry="5.049819"
       d="m -111.72724,604.50635 a 6.1544671,5.049819 0 1 1 -12.30893,0 6.1544671,5.049819 0 1 1 12.30893,0 z" />
    <path
       d="m -111.72724,604.50635 a 6.1544671,5.049819 0 1 1 -12.30893,0 6.1544671,5.049819 0 1 1 12.30893,0 z"
       sodipodi:ry="5.049819"
       sodipodi:rx="6.1544671"
       sodipodi:cy="604.50635"
       sodipodi:cx="-117.88171"
       id="path3674"
       style="fill:none;stroke:#000000;stroke-width:1.5;stroke-linejoin:miter;stroke-miterlimit:4;stroke-opacity:1;stroke-dasharray:none;stroke-dashoffset:0.0415"
       sodipodi:type="arc"
       transform="translate(20,0)" />
    <path
       style="fill:none;stroke:#000000;stroke-width:1px;stroke-linecap:butt;stroke-linejoin:miter;stroke-opacity:1"
       d="m -120.88005,621.23387 c 10.84931,18.85296 20.15574,10.7053 29.352078,0.63123 l -29.352078,-0.63123 z"
       id="path3676"
       sodipodi:nodetypes="ccc" />
    <path
       sodipodi:type="arc"
       style="fill:#000000;fill-opacity:1;stroke:none"
       id="path3680"
       sodipodi:cx="-97.998055"
       sodipodi:cy="604.50635"
       sodipodi:rx="0.78903425"
       sodipodi:ry="1.2624547"
       d="m -97.20902,604.50635 a 0.78903425,1.2624547 0 1 1 -1.578069,0 0.78903425,1.2624547 0 1 1 1.578069,0 z"
       transform="matrix(1.2673721,0,0,0.7921076,26.412912,125.93473)" />
    <path
       transform="matrix(1.2673721,0,0,0.7921076,6.091283,125.73452)"
       d="m -97.20902,604.50635 a 0.78903425,1.2624547 0 1 1 -1.578069,0 0.78903425,1.2624547 0 1 1 1.578069,0 z"
       sodipodi:ry="1.2624547"
       sodipodi:rx="0.78903425"
       sodipodi:cy="604.50635"
       sodipodi:cx="-97.998055"
       id="path3682"
       style="fill:#000000;fill-opacity:1;stroke:none"
       sodipodi:type="arc" />
    <path
       transform="matrix(0.71563832,0,0,0.71563832,253.85871,167.80914)"
       d="m -45.975807,618.78479 a 40.867386,37.674622 0 1 1 -81.734773,0 40.867386,37.674622 0 1 1 81.734773,0 z"
       sodipodi:ry="37.674622"
       sodipodi:rx="40.867386"
       sodipodi:cy="618.78479"
       sodipodi:cx="-86.843193"
       id="path3686"
       style="fill:none;stroke:#000000;stroke-opacity:1"
       sodipodi:type="arc" />
    <path
       id="path3688"
       d="m 190.16395,637.45445 0,86.84319"
       style="fill:none;stroke:#000000;stroke-width:1px;stroke-linecap:butt;stroke-linejoin:miter;stroke-opacity:1" />
    <path
       id="path3690"
       d="M 244.99957,643.83537 189.80672,662.91664 132.7741,642.64279"
       style="fill:none;stroke:#000000;stroke-width:1.1598388px;stroke-linecap:butt;stroke-linejoin:miter;stroke-opacity:1" />
    <path
       id="path3692"
       d="m 189.92232,721.98506 -37.82991,49.32387"
       style="fill:none;stroke:#000000;stroke-width:1.48326123px;stroke-linecap:butt;stroke-linejoin:miter;stroke-opacity:1" />
    <path
       style="fill:none;stroke:#000000;stroke-width:1.49842513px;stroke-linecap:butt;stroke-linejoin:miter;stroke-opacity:1"
       d="m 191.41317,721.99265 39.64606,48.03159"
       id="path3694" />
    <path
       d="m -111.72724,604.50635 a 6.1544671,5.049819 0 1 1 -12.30893,0 6.1544671,5.049819 0 1 1 12.30893,0 z"
       sodipodi:ry="5.049819"
       sodipodi:rx="6.1544671"
       sodipodi:cy="604.50635"
       sodipodi:cx="-117.88171"
       id="path3696"
       style="fill:none;stroke:#000000;stroke-width:1.5;stroke-linejoin:miter;stroke-miterlimit:4;stroke-opacity:1;stroke-dasharray:none;stroke-dashoffset:0.0415"
       sodipodi:type="arc"
       transform="translate(298.71794,-2.4025571)" />
    <path
       transform="translate(318.71794,-2.4025571)"
       sodipodi:type="arc"
       style="fill:none;stroke:#000000;stroke-width:1.5;stroke-linejoin:miter;stroke-miterlimit:4;stroke-opacity:1;stroke-dasharray:none;stroke-dashoffset:0.0415"
       id="path3698"
       sodipodi:cx="-117.88171"
       sodipodi:cy="604.50635"
       sodipodi:rx="6.1544671"
       sodipodi:ry="5.049819"
       d="m -111.72724,604.50635 a 6.1544671,5.049819 0 1 1 -12.30893,0 6.1544671,5.049819 0 1 1 12.30893,0 z" />
    <path
       sodipodi:nodetypes="ccc"
       id="path3700"
       d="m 177.83789,618.83131 c 10.84931,18.85296 20.15574,10.7053 29.35207,0.63123 l -29.35207,-0.63123 z"
       style="fill:none;stroke:#000000;stroke-width:1px;stroke-linecap:butt;stroke-linejoin:miter;stroke-opacity:1" />
    <path
       transform="matrix(1.2673721,0,0,0.7921076,325.13085,123.53217)"
       d="m -97.20902,604.50635 a 0.78903425,1.2624547 0 1 1 -1.578069,0 0.78903425,1.2624547 0 1 1 1.578069,0 z"
       sodipodi:ry="1.2624547"
       sodipodi:rx="0.78903425"
       sodipodi:cy="604.50635"
       sodipodi:cx="-97.998055"
       id="path3702"
       style="fill:#000000;fill-opacity:1;stroke:none"
       sodipodi:type="arc" />
    <path
       sodipodi:type="arc"
       style="fill:#000000;fill-opacity:1;stroke:none"
       id="path3704"
       sodipodi:cx="-97.998055"
       sodipodi:cy="604.50635"
       sodipodi:rx="0.78903425"
       sodipodi:ry="1.2624547"
       d="m -97.20902,604.50635 a 0.78903425,1.2624547 0 1 1 -1.578069,0 0.78903425,1.2624547 0 1 1 1.578069,0 z"
       transform="matrix(1.2673721,0,0,0.7921076,304.80922,123.33196)" />
    <text
       xml:space="preserve"
       style="font-size:18px;font-style:normal;font-variant:normal;font-weight:normal;font-stretch:normal;fill:#000000;fill-opacity:1;stroke:none;font-family:Liberation Mono;-inkscape-font-specification:Liberation Mono"
       x="-48.051144"
       y="583.86353"
       id="text3706"><tspan
         sodipodi:role="line"
         id="tspan3708"
         x="-48.051144"
         y="583.86353">Tu sais quoi ?</tspan><tspan
         sodipodi:role="line"
         x="-48.051144"
         y="606.36353"
         id="tspan3710">Je suis allé </tspan><tspan
         sodipodi:role="line"
         x="-48.051144"
         y="628.86353"
         id="tspan3712">aux toilettes !</tspan></text>
    <path
       style="fill:none;stroke:#000000;stroke-width:1px;stroke-linecap:butt;stroke-linejoin:miter;stroke-opacity:1"
       d="m -80.085237,618.3002 c 0,0 17.03593,-8.12128 20.822161,-16.01705 5.541617,-11.55643 -12.149178,-20.45364 -3.203409,-29.63154 38.943359,-39.95389 129.875269,-37.021 172.984115,-1.60171 17.43477,14.32484 20.2356,38.55561 9.61023,58.46223 -9.68887,18.15207 -36.472325,21.2519 -56.860523,24.02557 -32.809363,4.46349 -67.8650983,-0.26043 -98.504841,-12.81364 -10.226848,-4.18998 -16.202009,-15.82956 -26.428129,-20.02131 -5.729234,-2.34845 -18.419604,-2.40255 -18.419604,-2.40255 z"
       id="path3714"
       sodipodi:nodetypes="csssssssc" />
    <path
       style="fill:#ffffff;stroke:#000000;stroke-width:1px;stroke-linecap:butt;stroke-linejoin:miter;stroke-opacity:1;fill-opacity:1"
       d="m 163.37388,630.31298 c 0,0 -8.97719,11.27054 -15.21619,14.41534 -38.25092,19.28055 -86.230156,7.91807 -126.534676,22.42387 -17.3221946,6.23435 -41.992939,9.8444 -48.051142,27.22898 -3.980315,11.42189 5.148838,24.99664 13.61449,33.6358 11.3833456,11.61666 28.876287,16.14798 44.847733,19.22046 31.729195,6.10386 73.435775,19.80739 96.903135,-2.40256 19.44299,-27.00865 7.63176,-15.0898 27.22898,-34.43665 6.62424,-11.59084 6.33097,-28.757 -0.80085,-40.04262 -2.55105,-4.03686 -11.51038,-1.81274 -12.81364,-6.40682 -3.59875,-12.68582 20.82216,-33.6358 20.82216,-33.6358 z"
       id="path3716"
       sodipodi:nodetypes="csssssccssc" />
    <text
       xml:space="preserve"
       style="font-size:35.93735886px;font-style:normal;font-variant:normal;font-weight:normal;font-stretch:normal;fill:#000000;fill-opacity:1;stroke:none;font-family:Bitstream Charter;-inkscape-font-specification:Bitstream Charter"
       x="14.082954"
       y="722.37665"
       id="text3718"
       transform="scale(1.0080707,0.99199389)"><tspan
         sodipodi:role="line"
         id="tspan3720"
         x="14.082954"
         y="722.37665">J'aime</tspan></text>
  </g>
</svg>
