<?xml version="1.0" encoding="UTF-8" standalone="no"?>
<!-- Created with Inkscape (http://www.inkscape.org/) -->

<svg
   xmlns:dc="http://purl.org/dc/elements/1.1/"
   xmlns:cc="http://creativecommons.org/ns#"
   xmlns:rdf="http://www.w3.org/1999/02/22-rdf-syntax-ns#"
   xmlns:svg="http://www.w3.org/2000/svg"
   xmlns="http://www.w3.org/2000/svg"
   xmlns:xlink="http://www.w3.org/1999/xlink"
   xmlns:sodipodi="http://sodipodi.sourceforge.net/DTD/sodipodi-0.dtd"
   xmlns:inkscape="http://www.inkscape.org/namespaces/inkscape"
   id="svg2"
   version="1.1"
   inkscape:version="0.47 r22583"
   width="671"
   height="372"
   sodipodi:docname="facebook.png">
  <metadata
     id="metadata8">
    <rdf:RDF>
      <cc:Work
         rdf:about="">
        <dc:format>image/svg+xml</dc:format>
        <dc:type
           rdf:resource="http://purl.org/dc/dcmitype/StillImage" />
        <dc:title></dc:title>
      </cc:Work>
    </rdf:RDF>
  </metadata>
  <defs
     id="defs6">
    <inkscape:perspective
       sodipodi:type="inkscape:persp3d"
       inkscape:vp_x="0 : 0.5 : 1"
       inkscape:vp_y="0 : 1000 : 0"
       inkscape:vp_z="1 : 0.5 : 1"
       inkscape:persp3d-origin="0.5 : 0.33333333 : 1"
       id="perspective10" />
    <linearGradient
       gradientTransform="translate(-235.07938,-511.16691)"
       y2="958.49841"
       x2="422.96292"
       y1="974.31415"
       x1="259.08426"
       gradientUnits="userSpaceOnUse"
       id="linearGradient3123"
       xlink:href="#linearGradient3653"
       inkscape:collect="always" />
    <linearGradient
       gradientTransform="translate(-235.07938,-511.16691)"
       y2="1005.4213"
       x2="350.24918"
       y1="991.27234"
       x1="336.88474"
       gradientUnits="userSpaceOnUse"
       id="linearGradient3119"
       xlink:href="#linearGradient3653"
       inkscape:collect="always" />
    <linearGradient
       gradientTransform="translate(-235.07938,-511.16691)"
       y2="902.70233"
       x2="292.05054"
       y1="899.28149"
       x1="288.62973"
       gradientUnits="userSpaceOnUse"
       id="linearGradient3117"
       xlink:href="#linearGradient3645"
       inkscape:collect="always" />
    <linearGradient
       gradientTransform="translate(-157.4445,-457.25968)"
       y2="880.43341"
       x2="276.41626"
       y1="923.1015"
       x1="276.41626"
       gradientUnits="userSpaceOnUse"
       id="linearGradient3113"
       xlink:href="#linearGradient3653"
       inkscape:collect="always" />
    <linearGradient
       gradientTransform="translate(-102.16319,-501.60939)"
       y2="922.3382"
       x2="344.46893"
       y1="966.50299"
       x1="344.46893"
       gradientUnits="userSpaceOnUse"
       id="linearGradient3110"
       xlink:href="#linearGradient3653"
       inkscape:collect="always" />
    <linearGradient
       id="linearGradient3711">
      <stop
         id="stop3713"
         offset="0"
         style="stop-color:#ff0000;stop-opacity:1;" />
      <stop
         id="stop3715"
         offset="1"
         style="stop-color:#000000;stop-opacity:1;" />
    </linearGradient>
    <linearGradient
       id="linearGradient3653">
      <stop
         style="stop-color:#000000;stop-opacity:1;"
         offset="0"
         id="stop3655" />
      <stop
         style="stop-color:#ff0000;stop-opacity:1;"
         offset="1"
         id="stop3657" />
    </linearGradient>
    <linearGradient
       id="linearGradient3645">
      <stop
         style="stop-color:#ff0000;stop-opacity:1;"
         offset="0"
         id="stop3647" />
      <stop
         style="stop-color:#000000;stop-opacity:0;"
         offset="1"
         id="stop3649" />
    </linearGradient>
    <inkscape:perspective
       id="perspective10-95"
       inkscape:persp3d-origin="372.04724 : 350.78739 : 1"
       inkscape:vp_z="744.09448 : 526.18109 : 1"
       inkscape:vp_y="0 : 1000 : 0"
       inkscape:vp_x="0 : 526.18109 : 1"
       sodipodi:type="inkscape:persp3d" />
    <linearGradient
       inkscape:collect="always"
       xlink:href="#linearGradient3645"
       id="linearGradient3651"
       x1="288.62973"
       y1="899.28149"
       x2="292.05054"
       y2="902.70233"
       gradientUnits="userSpaceOnUse" />
    <linearGradient
       inkscape:collect="always"
       xlink:href="#linearGradient3653"
       id="linearGradient3663"
       x1="336.88474"
       y1="991.27234"
       x2="350.24918"
       y2="1005.4213"
       gradientUnits="userSpaceOnUse" />
    <linearGradient
       inkscape:collect="always"
       xlink:href="#linearGradient3653"
       id="linearGradient3673"
       x1="259.08426"
       y1="974.31415"
       x2="422.96292"
       y2="958.49841"
       gradientUnits="userSpaceOnUse" />
    <linearGradient
       inkscape:collect="always"
       xlink:href="#linearGradient3653"
       id="linearGradient3681"
       x1="316.54602"
       y1="896.64703"
       x2="292.5509"
       y2="853.65417"
       gradientUnits="userSpaceOnUse" />
    <linearGradient
       inkscape:collect="always"
       xlink:href="#linearGradient3653"
       id="linearGradient3689"
       x1="344.46893"
       y1="966.50299"
       x2="344.46893"
       y2="922.3382"
       gradientUnits="userSpaceOnUse" />
    <linearGradient
       inkscape:collect="always"
       xlink:href="#linearGradient3653"
       id="linearGradient3697"
       x1="276.41626"
       y1="923.1015"
       x2="276.41626"
       y2="880.43341"
       gradientUnits="userSpaceOnUse" />
    <radialGradient
       inkscape:collect="always"
       xlink:href="#linearGradient3711"
       id="radialGradient3709"
       cx="326.6861"
       cy="980.73926"
       fx="326.6861"
       fy="980.73926"
       r="3.4207969"
       gradientTransform="matrix(1,0,0,3.5625001,0,-2513.1445)"
       gradientUnits="userSpaceOnUse" />
    <inkscape:perspective
       sodipodi:type="inkscape:persp3d"
       inkscape:vp_x="0 : 0.5 : 1"
       inkscape:vp_y="0 : 1000 : 0"
       inkscape:vp_z="1 : 0.5 : 1"
       inkscape:persp3d-origin="0.5 : 0.33333333 : 1"
       id="perspective3051" />
    <inkscape:perspective
       sodipodi:type="inkscape:persp3d"
       inkscape:vp_x="0 : 526.18109 : 1"
       inkscape:vp_y="0 : 1000 : 0"
       inkscape:vp_z="744.09448 : 526.18109 : 1"
       inkscape:persp3d-origin="372.04724 : 350.78739 : 1"
       id="perspective10-7" />
    <inkscape:perspective
       id="perspective2824"
       inkscape:persp3d-origin="0.5 : 0.33333333 : 1"
       inkscape:vp_z="1 : 0.5 : 1"
       inkscape:vp_y="0 : 1000 : 0"
       inkscape:vp_x="0 : 0.5 : 1"
       sodipodi:type="inkscape:persp3d" />
    <inkscape:perspective
       id="perspective2962"
       inkscape:persp3d-origin="0.5 : 0.33333333 : 1"
       inkscape:vp_z="1 : 0.5 : 1"
       inkscape:vp_y="0 : 1000 : 0"
       inkscape:vp_x="0 : 0.5 : 1"
       sodipodi:type="inkscape:persp3d" />
    <inkscape:perspective
       sodipodi:type="inkscape:persp3d"
       inkscape:vp_x="0 : 0.5 : 1"
       inkscape:vp_y="0 : 1000 : 0"
       inkscape:vp_z="1 : 0.5 : 1"
       inkscape:persp3d-origin="0.5 : 0.33333333 : 1"
       id="perspective3701" />
    <inkscape:perspective
       id="perspective10-9"
       inkscape:persp3d-origin="0.5 : 0.33333333 : 1"
       inkscape:vp_z="1 : 0.5 : 1"
       inkscape:vp_y="0 : 1000 : 0"
       inkscape:vp_x="0 : 0.5 : 1"
       sodipodi:type="inkscape:persp3d" />
    <inkscape:perspective
       id="perspective10-1"
       inkscape:persp3d-origin="372.04724 : 350.78739 : 1"
       inkscape:vp_z="744.09448 : 526.18109 : 1"
       inkscape:vp_y="0 : 1000 : 0"
       inkscape:vp_x="0 : 526.18109 : 1"
       sodipodi:type="inkscape:persp3d" />
  </defs>
  <sodipodi:namedview
     pagecolor="#ffffff"
     bordercolor="#666666"
     borderopacity="1"
     objecttolerance="10"
     gridtolerance="10"
     guidetolerance="10"
     inkscape:pageopacity="0"
     inkscape:pageshadow="2"
     inkscape:window-width="1920"
     inkscape:window-height="1006"
     id="namedview4"
     showgrid="false"
     inkscape:zoom="0.6344086"
     inkscape:cx="335.5"
     inkscape:cy="375.15254"
     inkscape:window-x="0"
     inkscape:window-y="25"
     inkscape:window-maximized="1"
     inkscape:current-layer="svg2" />
  <g
     id="layer1"
     inkscape:label="Calque 1"
     transform="translate(334.61185,-402.45312)">
    <g
       transform="translate(-22.651526,9.0606103)"
       id="g2995">
      <path
         style="fill:none;stroke:#000000;stroke-width:2.09800005;stroke-linecap:butt;stroke-linejoin:miter;stroke-miterlimit:4;stroke-opacity:1;stroke-dasharray:none"
         d="m 152.51091,742.3399 c -0.053,-18.5415 -10.4486,-35.1654 3.65935,-61.96844 -9.47524,3.68181 -5.79257,-24.80409 -4.65872,-47.05877 7.33627,-10.079 15.76244,-19.69083 31.67928,-26.09199 l 0.46588,-9.7845 c 5.74575,-7.19636 11.02563,-17.26272 16.77137,-17.23935 l 8.3857,-9.31857 0,4.65928 c 10.08033,-6.86365 19.76113,-12.22624 31.21341,-11.18227 l -8.38569,-8.38672 c 1.19655,-3.4397 5.97017,-5.09064 12.11266,-6.05706 l -0.93174,10.71635 13.97615,-5.12522 c -1.31664,2.00283 5.31672,2.41546 9.78331,3.2615 -7.69257,-0.15909 -14.99283,-0.0566 -15.37377,4.65929 16.81953,-0.11513 20.83681,4.57117 28.41817,7.92078 l 20.03249,11.64821 -4.19285,6.05707 12.11267,-6.05707 c 15.3319,3.90611 24.29348,13.03294 27.26355,33.01138 -6.30762,19.10307 -9.68575,51.1409 -3.58812,70.24396 l -6.55692,-1.67594 c 2.6721,8.6977 3.03935,16.93448 -5.68911,23.35198 l 2.09385,4.8657 -9.91666,-3.8804 c -3.60546,4.7053 -7.74851,7.7979 -12.50361,9.0543 2.3399,-4.9527 -1.0477,-5.6098 -3.01812,-7.3297 -10.03129,5.2595 -18.56388,7.5216 -26.3007,8.1921 l 1.29348,-2.587 c -6.17995,2.6213 -12.3599,3.9894 -18.53985,4.3116 l 3.44928,-5.1739 -6.03623,1.7246 3.44927,-11.2101 c 0,0 -5.17391,4.7427 -5.17391,2.5869 0,-2.1557 -0.43116,-20.69559 -0.43116,-20.69559 l -5.1739,3.44927 c 2.42276,-6.03623 4.35491,-12.07245 0,-18.10868 l -0.86232,0 c 1.07756,-2.95671 -0.41503,-7.38207 8.19202,-6.03622 l -3.01811,-3.88044 c 0,0 -1.70738,-6.11209 14.22825,-2.58695 8.46163,1.87181 21.55795,-6.89855 21.55795,-6.89855 l -11.21014,2.58696 2.58696,-6.89855 -5.17391,-0.86232 14.65941,-19.40215"
         id="path2830"
         sodipodi:nodetypes="cccccccccccccccccccccccccccccccccsccccccsccccc" />
      <path
         style="fill:none;stroke:#000000;stroke-width:2.09800005;stroke-linecap:butt;stroke-linejoin:miter;stroke-miterlimit:4;stroke-opacity:1;stroke-dasharray:none"
         d="m 282.42151,572.27607 c 7.90742,-1.7332 12.56138,-9.97411 18.16899,-16.3075 -1.4811,7.96865 -1.1802,17.12547 -6.05633,22.83049"
         id="path2832"
         sodipodi:nodetypes="ccc" />
      <path
         style="fill:none;stroke:#000000;stroke-width:2.09800005;stroke-linecap:butt;stroke-linejoin:miter;stroke-miterlimit:4;stroke-opacity:1;stroke-dasharray:none"
         d="m 215.80185,570.87828 3.72697,-16.30749 6.9029,11.35093"
         id="path2834"
         sodipodi:nodetypes="ccc" />
      <path
         style="fill:none;stroke:#000000;stroke-width:2.09800005;stroke-linecap:butt;stroke-linejoin:miter;stroke-miterlimit:4;stroke-opacity:1;stroke-dasharray:none"
         d="m 151.51155,672.91661 c -10.87764,-4.66067 -23.92484,-5.94606 -29.88928,-18.25041 l -14.36854,-8.77344 c -3.36476,-5.64694 -5.98975,-11.86301 -1.77634,-23.34 5.45737,-9.02227 7.75074,-18.65831 22.94083,-28.22135 l 19.36635,-10.40714 1.39762,-6.05706 c 3.74915,-0.85642 6.6527,-1.03627 7.45394,0.46592"
         id="path2836"
         sodipodi:nodetypes="cccccccc" />
      <path
         style="fill:none;stroke:#000000;stroke-width:2.09800005;stroke-linecap:butt;stroke-linejoin:miter;stroke-miterlimit:4;stroke-opacity:1;stroke-dasharray:none"
         d="m 163.00165,600.27534 c -5.70618,1.52355 -10.2531,4.89487 -11.95598,-3.30507 -3.52911,-8.85249 -0.65153,-13.00615 4.65872,-15.37563 l 5.12459,-11.18229 c 2.02521,-4.41917 9.06791,-2.97343 13.04441,0 l 0.46587,-6.523 c 4.63377,-3.16813 6.26878,-1.33774 9.31744,-1.8637 l 2.32935,-6.05708 c 1.4844,-3.8599 7.77582,0.28804 10.71505,2.32964 3.89481,3.19444 7.73917,6.5024 9.31744,14.90971 -2.70888,3.92552 -8.46535,8.44976 -13.51029,6.05708 l -5.12458,-11.18229 0.93174,6.98893 -5.59045,2.32964 -3.72699,-2.32964 c 1.36926,5.59168 6.82088,4.41494 3.26111,20.50084 -0.85915,3.88234 -5.78483,6.23143 -11.18093,5.59114 -9.44556,0.5509 -7.65339,-1.54269 -7.45394,-3.26149 -4.73209,-1.06882 -2.28627,-3.93234 -2.79523,-6.05707 l 5.59046,1.86371 c 0.58989,-3.40899 0.37157,-6.6159 -3.72697,-8.85264"
         id="path2838"
         sodipodi:nodetypes="ccczcccscccccccsccccc" />
      <path
         style="fill:none;stroke:#000000;stroke-width:1.17455053px;stroke-linecap:butt;stroke-linejoin:miter;stroke-opacity:1"
         d="m 163.71254,698.631 c -0.43671,10.2417 3.33875,16.9733 8.75606,22.3367"
         id="path2844"
         sodipodi:nodetypes="cc" />
      <path
         style="fill:none;stroke:#000000;stroke-width:2.09800005;stroke-linecap:butt;stroke-linejoin:miter;stroke-miterlimit:4;stroke-opacity:1;stroke-dasharray:none"
         d="m 248.41286,621.66448 c 5.83441,-4.27896 8.53272,-9.45406 10.24919,-14.90971 4.27656,6.00777 4.59963,13.90588 4.19285,20.49914"
         id="path2846"
         sodipodi:nodetypes="ccc" />
      <path
         style="fill:#ffffff;stroke:#000000;stroke-width:2.09800005;stroke-linecap:butt;stroke-linejoin:miter;stroke-miterlimit:4;stroke-opacity:1;stroke-dasharray:none"
         d="m 168.7488,628.18747 c -4.02864,-7.44016 -2.22068,-13.08422 1.39761,-18.1712 0.21673,5.4546 -0.32242,11.0604 5.59047,15.37563 l 0.46586,-8.85263 4.65872,5.12521"
         id="path2848"
         sodipodi:nodetypes="ccccc" />
      <path
         style="fill:none;stroke:#000000;stroke-width:2.09800005;stroke-linecap:butt;stroke-linejoin:miter;stroke-miterlimit:4;stroke-opacity:1;stroke-dasharray:none"
         d="m 248.03216,621.66618 -4.74388,-8.38842 -2.79524,5.59115"
         id="path2850"
         sodipodi:nodetypes="ccc" />
      <path
         style="fill:none;stroke:#000000;stroke-width:2.09800005;stroke-linecap:butt;stroke-linejoin:miter;stroke-miterlimit:4;stroke-opacity:1;stroke-dasharray:none"
         d="m 188.78128,601.16362 c 9.90097,2.88509 19.07379,-1.51209 28.41818,-4.19335 8.0458,-2.80144 12.4226,-8.62478 29.81579,-3.72743"
         id="path2852"
         sodipodi:nodetypes="ccc" />
      <path
         style="fill:none;stroke:#000000;stroke-width:2.09800005;stroke-linecap:butt;stroke-linejoin:miter;stroke-miterlimit:4;stroke-opacity:1;stroke-dasharray:none"
         d="m 204.36537,606.97013 c 5.03298,4.18562 10.06595,0.65588 15.09893,-1.99863 8.03339,6.24064 14.61948,0.90138 21.53818,-1.77656"
         id="path2854"
         sodipodi:nodetypes="ccc" />
      <path
         style="fill:none;stroke:#000000;stroke-width:2.09800005;stroke-linecap:butt;stroke-linejoin:miter;stroke-miterlimit:4;stroke-opacity:1;stroke-dasharray:none"
         d="m 219.02022,602.30666 c 2.96713,4.57539 7.85884,4.15958 10.88011,1.11035 2.55229,-2.57591 1.03472,-4.24204 1.11022,-5.77383 -2.39703,-4.00995 -5.42326,-5.16398 -9.54786,-1.33242 -1.14707,1.77666 -2.44786,3.45085 -2.44247,5.9959 z"
         id="path2856"
         sodipodi:nodetypes="csccc" />
      <path
         style="fill:none;stroke:#000000;stroke-width:2.09800005;stroke-linecap:butt;stroke-linejoin:miter;stroke-miterlimit:4;stroke-opacity:1;stroke-dasharray:none"
         d="m 209.82053,608.04786 c 0,0.59465 4.6049,1.37072 7.94131,-2.19207 1.65158,-1.76365 1.53323,-6.78913 -1.61316,-7.15621 -3.14637,-0.36707 -2.73953,-1.19002 -6.44583,0.9349 -3.70629,2.12492 -1.54909,5.82334 0.11768,8.41339 l 0,-10e-6 z"
         id="path2858"
         sodipodi:nodetypes="cszzcz" />
      <path
         sodipodi:type="arc"
         style="fill:#000000;fill-opacity:1;stroke:none"
         id="path2860"
         sodipodi:cx="465.01508"
         sodipodi:cy="373.82541"
         sodipodi:rx="1.4007984"
         sodipodi:ry="1.35077"
         d="m 466.41587,373.82541 c 0,0.74601 -0.62715,1.35077 -1.40079,1.35077 -0.77364,0 -1.4008,-0.60476 -1.4008,-1.35077 0,-0.74601 0.62716,-1.35077 1.4008,-1.35077 0.77364,0 1.40079,0.60476 1.40079,1.35077 z"
         transform="matrix(0.99782653,0,0,0.99794788,-249.85626,230.11101)" />
      <path
         sodipodi:type="arc"
         style="fill:#000000;fill-opacity:1;stroke:none"
         id="path2862"
         sodipodi:cx="478.09753"
         sodipodi:cy="370.54852"
         sodipodi:rx="1.0255846"
         sodipodi:ry="0.92552757"
         d="m 479.12312,370.54852 c 0,0.51116 -0.45917,0.92553 -1.02559,0.92553 -0.56641,0 -1.02558,-0.41437 -1.02558,-0.92553 0,-0.51115 0.45917,-0.92552 1.02558,-0.92552 0.56642,0 1.02559,0.41437 1.02559,0.92552 z"
         transform="matrix(1.525892,0,0,1.5831727,-507.40432,14.705279)" />
      <path
         style="fill:none;stroke:#000000;stroke-width:0.99788719px;stroke-linecap:butt;stroke-linejoin:miter;stroke-opacity:1"
         d="m 194.9119,553.74542 c 0.6651,-0.33258 7.48232,-2.16182 7.48232,-2.16182 l -5.48704,-4.32364"
         id="path2864" />
      <path
         style="fill:none;stroke:#000000;stroke-width:0.99788719px;stroke-linecap:butt;stroke-linejoin:miter;stroke-opacity:1"
         d="m 208.6448,558.23973 c 4.9439,-0.37914 1.67727,-3.75479 2.89662,-5.25143"
         id="path2866"
         sodipodi:nodetypes="cc" />
      <path
         style="fill:none;stroke:#000000;stroke-width:0.99788719px;stroke-linecap:butt;stroke-linejoin:miter;stroke-opacity:1"
         d="m 212.33795,543.64523 -1.86415,4.28427"
         id="path2868"
         sodipodi:nodetypes="cc" />
      <path
         style="fill:none;stroke:#000000;stroke-width:0.99788719px;stroke-linecap:butt;stroke-linejoin:miter;stroke-opacity:1"
         d="m 183.37119,711.5627 c 3.58847,2.2703 5.93974,5.2828 4.65567,10.4766"
         id="path2870"
         sodipodi:nodetypes="cc" />
      <path
         style="fill:none;stroke:#000000;stroke-width:0.99788719px;stroke-linecap:butt;stroke-linejoin:miter;stroke-opacity:1"
         d="m 178.38298,708.2369 2.32783,4.8225"
         id="path2872" />
      <path
         style="fill:none;stroke:#000000;stroke-width:0.99788719px;stroke-linecap:butt;stroke-linejoin:miter;stroke-opacity:1"
         d="m 122.18247,648.53734 12.30425,5.32141"
         id="path2880" />
      <path
         style="fill:none;stroke:#000000;stroke-width:2.09800005;stroke-linecap:butt;stroke-linejoin:miter;stroke-miterlimit:4;stroke-opacity:1;stroke-dasharray:none"
         d="m 142.29687,635.7327 c 0.66509,-1.66294 13.96699,-20.28786 13.96699,-20.28786 l -1.99529,9.47876 13.46818,-20.28786"
         id="path2882" />
      <path
         style="fill:none;stroke:#000000;stroke-width:2.09800005;stroke-linecap:butt;stroke-linejoin:miter;stroke-miterlimit:4;stroke-opacity:1;stroke-dasharray:none"
         d="m 162.66206,632.24272 c 39.60186,-26.97175 76.52871,-16.48893 112.96223,0.9014"
         id="path2884"
         sodipodi:nodetypes="cc" />
      <path
         style="fill:none;stroke:#000000;stroke-width:0.99788719px;stroke-linecap:butt;stroke-linejoin:miter;stroke-opacity:1"
         d="m 183.0914,578.15847 8.41207,8.11264"
         id="path2886" />
      <path
         style="fill:none;stroke:#000000;stroke-width:0.99788719px;stroke-linecap:butt;stroke-linejoin:miter;stroke-opacity:1"
         d="m 189.40045,571.84865 4.20605,10.81684"
         id="path2888" />
      <path
         style="fill:none;stroke:#000000;stroke-width:2.09800005;stroke-linecap:butt;stroke-linejoin:miter;stroke-miterlimit:4;stroke-opacity:1;stroke-dasharray:none"
         d="m 315.74896,711.3709 1.80134,33.9659"
         id="path2890"
         sodipodi:nodetypes="cc" />
      <path
         style="fill:none;stroke:#000000;stroke-width:1px;stroke-linecap:butt;stroke-linejoin:miter;stroke-opacity:1"
         d="m 309.46053,623.97077 c 3.31036,8.72219 1.38691,13.95519 -2.15579,18.10868"
         id="path2968"
         sodipodi:nodetypes="cc" />
      <path
         style="fill:none;stroke:#000000;stroke-width:1px;stroke-linecap:butt;stroke-linejoin:miter;stroke-opacity:1"
         d="m 297.38808,646.8222 c 1.64009,11.24184 -1.99776,13.24727 -4.74275,16.8152"
         id="path2970"
         sodipodi:nodetypes="cc" />
      <path
         style="fill:none;stroke:#000000;stroke-width:1.5;stroke-linecap:butt;stroke-linejoin:miter;stroke-miterlimit:4;stroke-opacity:1;stroke-dasharray:none"
         d="m 250.39174,716.66997 -15.92331,1.45445 c -7.32522,0.6691 -1.15938,-8.0426 -1.63022,-12.35003 -0.13456,-1.23105 -5.2979,-8.50658 -5.2979,-8.50658 -2.43369,-2.59594 4.76696,-5.39792 5.12954,-8.93773 0.36411,-3.55481 -6.5692,-8.15505 -6.5692,-8.15505 0,0 -0.38784,-7.9756 1.43966,-10.93256 1.36214,-2.20399 4.01595,-3.47286 6.46738,-4.31159 3.81717,-1.30601 12.07246,-0.86232 12.07246,-0.86232"
         id="path2972"
         sodipodi:nodetypes="csssscssc" />
      <path
         style="fill:none;stroke:#000000;stroke-width:1.5;stroke-linecap:butt;stroke-linejoin:miter;stroke-miterlimit:4;stroke-opacity:1;stroke-dasharray:none"
         d="m 226.76103,680.71654 -5.70119,0 c -0.37913,6.22733 0.72185,12.40201 -0.29237,19.00399 l 8.33252,0.14618"
         id="path2974"
         sodipodi:nodetypes="cccc" />
      <path
         style="fill:none;stroke:#000000;stroke-width:1.5;stroke-linecap:butt;stroke-linejoin:miter;stroke-miterlimit:4;stroke-opacity:1;stroke-dasharray:none"
         d="m 231.14657,702.93658 -11.54858,10e-6 c -0.53285,2.90091 -0.99239,5.83846 -3.8008,7.60159 l -20.7582,1.0233 c -8.24885,-11.01736 -7.89805,-24.37148 -8.04015,-37.27706 11.50927,1.39103 23.46962,2.88225 34.20718,-1.9004 0.0279,1.45701 -0.29237,4.82408 -0.29237,4.82408 l 4.97027,-0.58473"
         id="path2976"
         sodipodi:nodetypes="cccccccc" />
      <path
         style="fill:none;stroke:#000000;stroke-width:1px;stroke-linecap:butt;stroke-linejoin:miter;stroke-opacity:1"
         d="m 196.93939,667.41374 c 0,0 -1.85497,-3.7116 -1.79853,-5.7046 0.063,-2.22676 2.26361,-4.02452 2.36691,-6.24978 0.10606,-2.28484 -1.8329,-4.32738 -1.82536,-6.61467 0.007,-2.07509 1.69553,-5.98995 1.69553,-5.98995"
         id="path2978"
         sodipodi:nodetypes="cssss" />
      <path
         style="fill:none;stroke:#000000;stroke-width:1px;stroke-linecap:butt;stroke-linejoin:miter;stroke-opacity:1"
         d="m 203.95625,667.55993 c 0,0 1.33583,-2.89881 1.0958,-4.38676 -0.25648,-1.58993 -2.57552,-2.47099 -2.58548,-4.08144 -0.0109,-1.75911 2.46548,-2.75999 2.76875,-4.49279 0.27751,-1.58564 -0.98671,-4.72734 -0.98671,-4.72734"
         id="path2980"
         sodipodi:nodetypes="cssss" />
      <path
         style="fill:none;stroke:#000000;stroke-width:1px;stroke-linecap:butt;stroke-linejoin:miter;stroke-opacity:1"
         d="m 210.82692,665.51334 c 0,-0.20964 2.74402,-2.39701 1.90165,-3.37615 0,0 -2.61285,-1.7996 -2.75258,-3.19951 -0.19446,-1.94825 2.94434,-3.16534 2.87507,-5.12204 -0.0559,-1.57947 -2.38282,-2.39567 -2.60737,-3.9601 -0.25987,-1.81046 1.60652,-5.24659 1.60652,-5.24659"
         id="path2982"
         sodipodi:nodetypes="csssss" />
      <path
         style="fill:none;stroke:#000000;stroke-width:1.5;stroke-linecap:butt;stroke-linejoin:miter;stroke-miterlimit:4;stroke-opacity:1;stroke-dasharray:none"
         d="m 187.14502,673.99204 c 8.50405,-2.27812 18.33687,-3.88696 34.20719,-1.90039"
         id="path2984"
         sodipodi:nodetypes="cc" />
      <path
         style="fill:none;stroke:#000000;stroke-width:0.88469499px;stroke-linecap:butt;stroke-linejoin:miter;stroke-opacity:1"
         d="m 210.61653,685.10087 -8.54002,0.0252 c -2.4807,0.007 -4.5761,3.38671 -4.57403,4.12859 l 0.0285,10.20004 c 1.94481,2.4603 9.3842,5.8915 13.44132,0.6835 l 0.0518,-3.55182"
         id="path2988"
         sodipodi:nodetypes="cssccc" />
      <rect
         style="fill:#800080;fill-opacity:1;stroke:#000000;stroke-width:1.01226771;stroke-linejoin:miter;stroke-miterlimit:4;stroke-opacity:1;stroke-dasharray:none;stroke-dashoffset:0.0415"
         id="rect2992"
         width="0.015746165"
         height="3.9082649"
         x="210.73958"
         y="683.36725"
         ry="0.39082649"
         rx="0" />
      <rect
         rx="0"
         ry="0.44332865"
         y="-218.71848"
         x="695.13824"
         height="4.4332867"
         width="0.013881412"
         id="rect2994"
         style="fill:#800080;fill-opacity:1;stroke:#000000;stroke-width:1.01226842;stroke-linejoin:miter;stroke-miterlimit:4;stroke-opacity:1;stroke-dasharray:none;stroke-dashoffset:0.0415"
         transform="matrix(-0.00781006,0.9999695,-0.99998158,-0.00606976,0,0)" />
      <path
         style="fill:#ff0000;stroke:#000000;stroke-width:0.18800403px;stroke-linecap:butt;stroke-linejoin:miter;stroke-opacity:1"
         d="m 196.34884,679.62395 c 5.38048,-0.0449 10.76097,-0.0896 16.14143,-0.13461 2.70789,3.39283 5.41576,6.78566 8.12364,10.17849 -5.34564,6.79 -10.69129,13.58007 -16.03694,20.37017 -5.3904,-6.7004 -10.7808,-13.40104 -16.1712,-20.10155 2.64769,-3.4375 5.29538,-6.875 7.94307,-10.3125 z"
         id="path2840" />
      <path
         id="path2861"
         d="m 197.48735,680.37247 c 4.9154,-0.0414 9.8308,-0.0826 14.7462,-0.12415 2.4739,3.14306 4.94778,6.28611 7.42166,9.42915 -4.88343,6.28977 -9.76688,12.57963 -14.65031,18.86933 -4.9246,-6.2071 -9.84921,-12.41439 -14.77383,-18.62161 2.41876,-3.18425 4.83752,-6.36848 7.25628,-9.55272 z"
         style="fill:#ffffff;stroke:#000000;stroke-width:0.17295147px;stroke-linecap:butt;stroke-linejoin:miter;stroke-opacity:1" />
      <text
         xml:space="preserve"
         style="font-size:29.28629494px;font-style:normal;font-variant:normal;font-weight:normal;font-stretch:normal;fill:#000000;fill-opacity:1;stroke:none;font-family:Old London;-inkscape-font-specification:Old London"
         x="190.66339"
         y="702.29901"
         id="text2856"
         transform="matrix(1.0005329,-0.00607954,0.00708404,0.99942434,0,0)"><tspan
           sodipodi:role="line"
           id="tspan2858"
           x="190.66339"
           y="702.29901">G</tspan></text>
    </g>
    <rect
       ry="31.021399"
       y="402.32507"
       x="-334.61185"
       height="150.04068"
       width="149.50168"
       id="rect2824"
       style="fill:#0000ff;fill-opacity:1;stroke:none" />
    <text
       id="text2816"
       y="535.2193"
       x="-179.99998"
       style="font-size:144px;font-style:normal;font-variant:normal;font-weight:normal;font-stretch:normal;fill:#000000;fill-opacity:1;stroke:none;font-family:Bitstream Charter;-inkscape-font-specification:Bitstream Charter"
       xml:space="preserve"><tspan
         y="535.2193"
         x="-179.99998"
         id="tspan2818"
         sodipodi:role="line">acebook </tspan></text>
    <text
       id="text2820"
       y="527.22107"
       x="-298.08435"
       style="font-size:144px;font-style:normal;font-variant:normal;font-weight:normal;font-stretch:normal;fill:#ffffff;fill-opacity:1;stroke:none;font-family:Bitstream Charter;-inkscape-font-specification:Bitstream Charter"
       xml:space="preserve"><tspan
         y="527.22107"
         x="-298.08435"
         id="tspan2822"
         sodipodi:role="line">F</tspan></text>
    <path
       transform="matrix(0.93983237,0,0,0.66376707,5.7747752,184.08756)"
       d="m 150.69849,503.84525 c 0,3.87929 -2.8589,7.02408 -6.38553,7.02408 -3.52663,0 -6.38553,-3.14479 -6.38553,-7.02408 0,-3.8793 2.8589,-7.02409 6.38553,-7.02409 3.52663,0 6.38553,3.14479 6.38553,7.02409 z"
       sodipodi:ry="7.0240817"
       sodipodi:rx="6.385529"
       sodipodi:cy="503.84525"
       sodipodi:cx="144.31296"
       id="path3604"
       style="fill:#000000;fill-opacity:1;stroke:none"
       sodipodi:type="arc" />
    <path
       sodipodi:type="arc"
       style="fill:#000000;fill-opacity:1;stroke:none"
       id="path3606"
       sodipodi:cx="144.31296"
       sodipodi:cy="503.84525"
       sodipodi:rx="6.385529"
       sodipodi:ry="7.0240817"
       d="m 150.69849,503.84525 c 0,3.87929 -2.8589,7.02408 -6.38553,7.02408 -3.52663,0 -6.38553,-3.14479 -6.38553,-7.02408 0,-3.8793 2.8589,-7.02409 6.38553,-7.02409 3.52663,0 6.38553,3.14479 6.38553,7.02409 z"
       transform="matrix(0.93983237,0,0,0.66376707,84.972845,184.08756)" />
    <path
       id="path3664"
       d="m -53.718363,646.23793 -55.192857,19.08127 -57.03262,-20.27385"
       style="fill:none;stroke:#000000;stroke-width:1.1598388px;stroke-linecap:butt;stroke-linejoin:miter;stroke-opacity:1" />
    <path
       sodipodi:nodetypes="csssssssc"
       id="path3714"
       d="m -80.085237,618.3002 c 0,0 17.03593,-8.12128 20.822161,-16.01705 5.541617,-11.55643 -12.149178,-20.45364 -3.203409,-29.63154 38.943359,-39.95389 129.875269,-37.021 172.984115,-1.60171 17.43477,14.32484 20.2356,38.55561 9.61023,58.46223 -9.68887,18.15207 -36.472325,21.2519 -56.860523,24.02557 -32.809363,4.46349 -67.8650983,-0.26043 -98.504841,-12.81364 -10.226848,-4.18998 -16.202009,-15.82956 -26.428129,-20.02131 -5.729234,-2.34845 -18.419604,-2.40255 -18.419604,-2.40255 z"
       style="fill:#ffffff;stroke:#000000;stroke-width:1px;stroke-linecap:butt;stroke-linejoin:miter;stroke-opacity:1" />
    <text
       id="text3706"
       y="583.86353"
       x="-48.051144"
       style="font-size:18px;font-style:normal;font-variant:normal;font-weight:normal;font-stretch:normal;fill:#000000;fill-opacity:1;stroke:none;font-family:Liberation Mono;-inkscape-font-specification:Liberation Mono"
       xml:space="preserve"><tspan
         y="583.86353"
         x="-48.051144"
         id="tspan3708"
         sodipodi:role="line">Tu sais quoi ?</tspan><tspan
         id="tspan3710"
         y="606.36353"
         x="-48.051144"
         sodipodi:role="line">Je suis allé </tspan><tspan
         id="tspan3712"
         y="628.86353"
         x="-48.051144"
         sodipodi:role="line">aux toilettes !</tspan></text>
    <path
       sodipodi:nodetypes="csssssccssc"
       id="path3716"
       d="m 163.37388,630.31298 c 0,0 -8.97719,11.27054 -15.21619,14.41534 -38.25092,19.28055 -86.230156,7.91807 -126.534676,22.42387 -17.3221946,6.23435 -41.992939,9.8444 -48.051142,27.22898 -3.980315,11.42189 5.148838,24.99664 13.61449,33.6358 11.3833456,11.61666 28.876287,16.14798 44.847733,19.22046 31.729195,6.10386 73.435775,19.80739 96.903135,-2.40256 19.44299,-27.00865 7.63176,-15.0898 27.22898,-34.43665 6.62424,-11.59084 6.33097,-28.757 -0.80085,-40.04262 -2.55105,-4.03686 -11.51038,-1.81274 -12.81364,-6.40682 -3.59875,-12.68582 20.82216,-33.6358 20.82216,-33.6358 z"
       style="fill:#ffffff;fill-opacity:1;stroke:#000000;stroke-width:1px;stroke-linecap:butt;stroke-linejoin:miter;stroke-opacity:1" />
    <text
       transform="scale(1.0080707,0.99199389)"
       id="text3718"
       y="722.37665"
       x="14.082954"
       style="font-size:35.93735886px;font-style:normal;font-variant:normal;font-weight:normal;font-stretch:normal;fill:#000000;fill-opacity:1;stroke:none;font-family:Bitstream Charter;-inkscape-font-specification:Bitstream Charter"
       xml:space="preserve"><tspan
         y="722.37665"
         x="14.082954"
         id="tspan3720"
         sodipodi:role="line">J'aime</tspan></text>
    <path
       transform="matrix(0.71563832,0,0,0.71563832,-44.859222,170.2117)"
       d="m -45.975807,618.78479 c 0,20.80712 -18.296952,37.67462 -40.867386,37.67462 -22.570437,0 -40.867387,-16.8675 -40.867387,-37.67462 0,-20.80712 18.29695,-37.67462 40.867387,-37.67462 22.570434,0 40.867386,16.8675 40.867386,37.67462 z"
       sodipodi:ry="37.674622"
       sodipodi:rx="40.867386"
       sodipodi:cy="618.78479"
       sodipodi:cx="-86.843193"
       id="path3660"
       style="fill:none;stroke:#000000;stroke-opacity:1"
       sodipodi:type="arc" />
    <path
       id="path3662"
       d="m -108.55399,639.85701 0,86.84319"
       style="fill:none;stroke:#000000;stroke-width:1px;stroke-linecap:butt;stroke-linejoin:miter;stroke-opacity:1" />
    <path
       id="path3666"
       d="m -108.79562,724.38762 -37.82991,49.32387"
       style="fill:none;stroke:#000000;stroke-width:1.48326123px;stroke-linecap:butt;stroke-linejoin:miter;stroke-opacity:1" />
    <path
       style="fill:none;stroke:#000000;stroke-width:1.49842513px;stroke-linecap:butt;stroke-linejoin:miter;stroke-opacity:1"
       d="m -107.30477,724.39521 39.64606,48.03159"
       id="path3668" />
    <path
       d="m -111.72724,604.50635 c 0,2.78894 -2.75545,5.04982 -6.15447,5.04982 -3.39901,0 -6.15446,-2.26088 -6.15446,-5.04982 0,-2.78894 2.75545,-5.04982 6.15446,-5.04982 3.39902,0 6.15447,2.26088 6.15447,5.04982 z"
       sodipodi:ry="5.049819"
       sodipodi:rx="6.1544671"
       sodipodi:cy="604.50635"
       sodipodi:cx="-117.88171"
       id="path3670"
       style="fill:none;stroke:#000000;stroke-width:1.5;stroke-linejoin:miter;stroke-miterlimit:4;stroke-opacity:1;stroke-dasharray:none;stroke-dashoffset:0.0415"
       sodipodi:type="arc" />
    <path
       transform="translate(20,0)"
       sodipodi:type="arc"
       style="fill:none;stroke:#000000;stroke-width:1.5;stroke-linejoin:miter;stroke-miterlimit:4;stroke-opacity:1;stroke-dasharray:none;stroke-dashoffset:0.0415"
       id="path3674"
       sodipodi:cx="-117.88171"
       sodipodi:cy="604.50635"
       sodipodi:rx="6.1544671"
       sodipodi:ry="5.049819"
       d="m -111.72724,604.50635 c 0,2.78894 -2.75545,5.04982 -6.15447,5.04982 -3.39901,0 -6.15446,-2.26088 -6.15446,-5.04982 0,-2.78894 2.75545,-5.04982 6.15446,-5.04982 3.39902,0 6.15447,2.26088 6.15447,5.04982 z" />
    <path
       sodipodi:nodetypes="ccc"
       id="path3676"
       d="m -120.88005,621.23387 c 10.84931,18.85296 20.15574,10.7053 29.352078,0.63123 l -29.352078,-0.63123 z"
       style="fill:none;stroke:#000000;stroke-width:1px;stroke-linecap:butt;stroke-linejoin:miter;stroke-opacity:1" />
    <path
       transform="matrix(1.2673721,0,0,0.7921076,26.412912,125.93473)"
       d="m -97.20902,604.50635 c 0,0.69723 -0.353263,1.26245 -0.789035,1.26245 -0.435771,0 -0.789034,-0.56522 -0.789034,-1.26245 0,-0.69724 0.353263,-1.26246 0.789034,-1.26246 0.435772,0 0.789035,0.56522 0.789035,1.26246 z"
       sodipodi:ry="1.2624547"
       sodipodi:rx="0.78903425"
       sodipodi:cy="604.50635"
       sodipodi:cx="-97.998055"
       id="path3680"
       style="fill:#000000;fill-opacity:1;stroke:none"
       sodipodi:type="arc" />
    <path
       sodipodi:type="arc"
       style="fill:#000000;fill-opacity:1;stroke:none"
       id="path3682"
       sodipodi:cx="-97.998055"
       sodipodi:cy="604.50635"
       sodipodi:rx="0.78903425"
       sodipodi:ry="1.2624547"
       d="m -97.20902,604.50635 c 0,0.69723 -0.353263,1.26245 -0.789035,1.26245 -0.435771,0 -0.789034,-0.56522 -0.789034,-1.26245 0,-0.69724 0.353263,-1.26246 0.789034,-1.26246 0.435772,0 0.789035,0.56522 0.789035,1.26246 z"
       transform="matrix(1.2673721,0,0,0.7921076,6.091283,125.73452)" />
    <path
       sodipodi:nodetypes="ccccc"
       id="path3640"
       d="m 135.88885,469.38822 -10.39793,6.43085 -10.39794,6.43085 c -31.931825,-16.6721 4.40649,-38.12083 7.81137,-59.07617 9.55994,16.59541 -23.880085,41.75446 12.9845,46.21447 z"
       style="fill:url(#linearGradient3113);fill-opacity:1;stroke:none" />
    <path
       style="fill:url(#linearGradient3110);fill-opacity:1;stroke:none"
       d="m 225.80573,466.94327 10.14157,6.43085 10.14157,6.43085 c 31.14454,-16.6721 -4.29785,-38.12083 -7.61878,-59.07617 -9.32423,16.59541 23.29133,41.75446 -12.66436,46.21447 z"
       id="path3643"
       sodipodi:nodetypes="ccccc" />
  </g>
</svg>
