<?xml version="1.0" encoding="UTF-8" standalone="no"?>
<!-- Created with Inkscape (http://www.inkscape.org/) -->

<svg
   xmlns:dc="http://purl.org/dc/elements/1.1/"
   xmlns:cc="http://creativecommons.org/ns#"
   xmlns:rdf="http://www.w3.org/1999/02/22-rdf-syntax-ns#"
   xmlns:svg="http://www.w3.org/2000/svg"
   xmlns="http://www.w3.org/2000/svg"
   xmlns:sodipodi="http://sodipodi.sourceforge.net/DTD/sodipodi-0.dtd"
   xmlns:inkscape="http://www.inkscape.org/namespaces/inkscape"
   id="svg2"
   version="1.1"
   inkscape:version="0.47 r22583"
   width="794"
   height="113"
   sodipodi:docname="head.svg">
  <metadata
     id="metadata8">
    <rdf:RDF>
      <cc:Work
         rdf:about="">
        <dc:format>image/svg+xml</dc:format>
        <dc:type
           rdf:resource="http://purl.org/dc/dcmitype/StillImage" />
        <dc:title />
      </cc:Work>
    </rdf:RDF>
  </metadata>
  <defs
     id="defs6">
    <inkscape:perspective
       sodipodi:type="inkscape:persp3d"
       inkscape:vp_x="0 : 0.5 : 1"
       inkscape:vp_y="0 : 1000 : 0"
       inkscape:vp_z="1 : 0.5 : 1"
       inkscape:persp3d-origin="0.5 : 0.33333333 : 1"
       id="perspective10" />
    <inkscape:perspective
       sodipodi:type="inkscape:persp3d"
       inkscape:vp_x="0 : 0.5 : 1"
       inkscape:vp_y="0 : 1000 : 0"
       inkscape:vp_z="1 : 0.5 : 1"
       inkscape:persp3d-origin="0.5 : 0.33333333 : 1"
       id="perspective2962" />
    <inkscape:perspective
       sodipodi:type="inkscape:persp3d"
       inkscape:vp_x="0 : 0.5 : 1"
       inkscape:vp_y="0 : 1000 : 0"
       inkscape:vp_z="1 : 0.5 : 1"
       inkscape:persp3d-origin="0.5 : 0.33333333 : 1"
       id="perspective2824" />
    <inkscape:perspective
       id="perspective10-6"
       inkscape:persp3d-origin="372.04724 : 350.78739 : 1"
       inkscape:vp_z="744.09448 : 526.18109 : 1"
       inkscape:vp_y="0 : 1000 : 0"
       inkscape:vp_x="0 : 526.18109 : 1"
       sodipodi:type="inkscape:persp3d" />
    <inkscape:perspective
       sodipodi:type="inkscape:persp3d"
       inkscape:vp_x="0 : 0.5 : 1"
       inkscape:vp_y="0 : 1000 : 0"
       inkscape:vp_z="1 : 0.5 : 1"
       inkscape:persp3d-origin="0.5 : 0.33333333 : 1"
       id="perspective10-9" />
    <inkscape:perspective
       id="perspective3701"
       inkscape:persp3d-origin="0.5 : 0.33333333 : 1"
       inkscape:vp_z="1 : 0.5 : 1"
       inkscape:vp_y="0 : 1000 : 0"
       inkscape:vp_x="0 : 0.5 : 1"
       sodipodi:type="inkscape:persp3d" />
    <inkscape:perspective
       sodipodi:type="inkscape:persp3d"
       inkscape:vp_x="0 : 0.5 : 1"
       inkscape:vp_y="0 : 1000 : 0"
       inkscape:vp_z="1 : 0.5 : 1"
       inkscape:persp3d-origin="0.5 : 0.33333333 : 1"
       id="perspective2962-7" />
    <inkscape:perspective
       sodipodi:type="inkscape:persp3d"
       inkscape:vp_x="0 : 0.5 : 1"
       inkscape:vp_y="0 : 1000 : 0"
       inkscape:vp_z="1 : 0.5 : 1"
       inkscape:persp3d-origin="0.5 : 0.33333333 : 1"
       id="perspective2824-9" />
    <inkscape:perspective
       id="perspective10-8"
       inkscape:persp3d-origin="372.04724 : 350.78739 : 1"
       inkscape:vp_z="744.09448 : 526.18109 : 1"
       inkscape:vp_y="0 : 1000 : 0"
       inkscape:vp_x="0 : 526.18109 : 1"
       sodipodi:type="inkscape:persp3d" />
  </defs>
  <sodipodi:namedview
     pagecolor="#ffffff"
     bordercolor="#666666"
     borderopacity="1"
     objecttolerance="10"
     gridtolerance="10"
     guidetolerance="10"
     inkscape:pageopacity="0"
     inkscape:pageshadow="2"
     inkscape:window-width="1077"
     inkscape:window-height="807"
     id="namedview4"
     showgrid="false"
     inkscape:zoom="1.2134599"
     inkscape:cx="433.00873"
     inkscape:cy="48.599787"
     inkscape:window-x="0"
     inkscape:window-y="25"
     inkscape:window-maximized="0"
     inkscape:current-layer="svg2"
     showguides="true"
     inkscape:guide-bbox="true" />
  <g
     id="g3003"
     transform="matrix(0.52323526,0,0,0.52323526,335.35377,31.504488)">
    <path
       sodipodi:nodetypes="cccccccccccccccccccccccccccccccccsccccccsccccc"
       id="path2830"
       d="m 589.1546,141.08492 c -0.053,-18.5415 -10.4486,-35.1654 3.65935,-61.968439 -9.47524,3.68181 -5.79257,-24.80409 -4.65871,-47.05877 7.33626,-10.079 15.76243,-19.69083 31.67927,-26.0919901 l 0.46588,-9.7845 c 5.74575,-7.1963599 11.02563,-17.2627199 16.77137,-17.2393499 l 8.3857,-9.31857 0,4.65928 c 10.08033,-6.86365 19.76113,-12.22624 31.21341,-11.18227 l -8.38569,-8.38672 c 1.19655,-3.4397 5.97017,-5.09064 12.11266,-6.05706 l -0.93174,10.71635 13.97615,-5.12522 c -1.31664,2.00283 5.31672,2.41546 9.78331,3.2615 -7.69257,-0.15909 -14.99283,-0.0566 -15.37377,4.65929 16.81953,-0.11513 20.83681,4.57117 28.41817,7.92078 l 20.03249,11.64821 -4.19285,6.05707 12.11267,-6.05707 c 15.3319,3.90611 24.29348,13.0329399 27.26355,33.01138 -6.30762,19.10307 -9.68575,51.1409 -3.58812,70.24396 l -6.55692,-1.67594 c 2.6721,8.6977 3.03935,16.934479 -5.68911,23.351979 l 2.09385,4.8657 -9.91666,-3.8804 c -3.60546,4.7053 -7.74851,7.7979 -12.50361,9.0543 2.3399,-4.9527 -1.0477,-5.6098 -3.01812,-7.3297 -10.03129,5.2595 -18.56388,7.5216 -26.3007,8.1921 l 1.29348,-2.587 c -6.17995,2.6213 -12.3599,3.9894 -18.53985,4.3116 l 3.44928,-5.1739 -6.03623,1.7246 3.44927,-11.2101 c 0,0 -5.17391,4.7427 -5.17391,2.5869 0,-2.1557 -0.43116,-20.695589 -0.43116,-20.695589 l -5.1739,3.44927 c 2.42276,-6.03623 4.35491,-12.07245 0,-18.10868 l -0.86232,0 c 1.07756,-2.95671 -0.41503,-7.38207 8.19202,-6.03622 l -3.01811,-3.88044 c 0,0 -1.70738,-6.11209 14.22825,-2.58695 8.46163,1.87181 21.55795,-6.89855 21.55795,-6.89855 l -11.21014,2.58696 2.58696,-6.89855 -5.17391,-0.86232 14.65941,-19.40215"
       style="fill:none;stroke:#000000;stroke-width:2.09800005;stroke-linecap:butt;stroke-linejoin:miter;stroke-miterlimit:4;stroke-opacity:1;stroke-dasharray:none" />
    <path
       sodipodi:nodetypes="ccc"
       id="path2832"
       d="m 719.0652,-28.978909 c 7.90742,-1.7332 12.56138,-9.97411 18.16899,-16.3075 -1.4811,7.96865 -1.1802,17.12547 -6.05633,22.83049"
       style="fill:none;stroke:#000000;stroke-width:2.09800005;stroke-linecap:butt;stroke-linejoin:miter;stroke-miterlimit:4;stroke-opacity:1;stroke-dasharray:none" />
    <path
       sodipodi:nodetypes="ccc"
       id="path2834"
       d="m 652.44554,-30.376699 3.72697,-16.30749 6.9029,11.35093"
       style="fill:none;stroke:#000000;stroke-width:2.09800005;stroke-linecap:butt;stroke-linejoin:miter;stroke-miterlimit:4;stroke-opacity:1;stroke-dasharray:none" />
    <path
       sodipodi:nodetypes="cccccccc"
       id="path2836"
       d="m 588.15524,71.661631 c -10.87764,-4.66067 -23.92484,-5.94606 -29.88928,-18.25041 l -14.36854,-8.77344 c -3.36476,-5.64694 -5.98975,-11.86301 -1.77634,-23.34 5.45737,-9.02227 7.75074,-18.6583101 22.94083,-28.2213501 l 19.36635,-10.4071399 1.39762,-6.05706 c 3.74915,-0.85642 6.6527,-1.03627 7.45394,0.46592"
       style="fill:none;stroke:#000000;stroke-width:2.09800005;stroke-linecap:butt;stroke-linejoin:miter;stroke-miterlimit:4;stroke-opacity:1;stroke-dasharray:none" />
    <path
       sodipodi:nodetypes="ccczcccscccccccsccccc"
       id="path2838"
       d="m 599.64534,-0.97963905 c -5.70618,1.52355 -10.2531,4.89486995 -11.95598,-3.30507005 -3.52911,-8.8524899 -0.65153,-13.0061499 4.65872,-15.3756299 l 5.12459,-11.18229 c 2.02521,-4.41917 9.06791,-2.97343 13.04441,0 l 0.46587,-6.523 c 4.63377,-3.16813 6.26878,-1.33774 9.31744,-1.8637 l 2.32935,-6.05708 c 1.4844,-3.8599 7.77582,0.28804 10.71505,2.32964 3.89481,3.19444 7.73917,6.5024 9.31744,14.90971 -2.70888,3.92552 -8.46535,8.44976 -13.51028,6.05708 l -5.12459,-11.18229 0.93174,6.98893 -5.59046,2.32964 -3.72698,-2.32964 c 1.36926,5.59168 6.82088,4.41494 3.26111,20.5008399 -0.85915,3.88234 -5.78483,6.23143005 -11.18093,5.59114005 -9.44556,0.5509 -7.65339,-1.54269005 -7.45394,-3.26149005 -4.73209,-1.06882 -2.28627,-3.93234 -2.79523,-6.05707 l 5.59046,1.86371 c 0.58989,-3.4089899 0.37157,-6.6158999 -3.72697,-8.8526399"
       style="fill:none;stroke:#000000;stroke-width:2.09800005;stroke-linecap:butt;stroke-linejoin:miter;stroke-miterlimit:4;stroke-opacity:1;stroke-dasharray:none" />
    <path
       sodipodi:nodetypes="cc"
       id="path2844"
       d="m 600.35623,97.376021 c -0.43671,10.241699 3.33875,16.973299 8.75606,22.336699"
       style="fill:none;stroke:#000000;stroke-width:1.17455053px;stroke-linecap:butt;stroke-linejoin:miter;stroke-opacity:1" />
    <path
       sodipodi:nodetypes="ccc"
       id="path2846"
       d="m 685.05655,20.409501 c 5.83441,-4.27896 8.53272,-9.45406 10.24919,-14.9097101 4.27656,6.0077701 4.59963,13.9058801 4.19285,20.4991401"
       style="fill:none;stroke:#000000;stroke-width:2.09800005;stroke-linecap:butt;stroke-linejoin:miter;stroke-miterlimit:4;stroke-opacity:1;stroke-dasharray:none" />
    <path
       sodipodi:nodetypes="ccccc"
       id="path2848"
       d="m 605.39249,26.932491 c -4.02864,-7.44016 -2.22068,-13.08422 1.39761,-18.1712001 0.21673,5.4546001 -0.32242,11.0604001 5.59047,15.3756301 l 0.46586,-8.85263 4.65872,5.12521"
       style="fill:#ffffff;stroke:#000000;stroke-width:2.09800005;stroke-linecap:butt;stroke-linejoin:miter;stroke-miterlimit:4;stroke-opacity:1;stroke-dasharray:none" />
    <path
       sodipodi:nodetypes="ccc"
       id="path2850"
       d="m 684.67585,20.411201 -4.74388,-8.38842 -2.79524,5.59115"
       style="fill:none;stroke:#000000;stroke-width:2.09800005;stroke-linecap:butt;stroke-linejoin:miter;stroke-miterlimit:4;stroke-opacity:1;stroke-dasharray:none" />
    <path
       sodipodi:nodetypes="ccc"
       id="path2852"
       d="m 625.42497,-0.09135905 c 9.90097,2.88508995 19.07379,-1.51209005 28.41818,-4.19335005 8.0458,-2.80144 12.4226,-8.6247799 29.81579,-3.72743"
       style="fill:none;stroke:#000000;stroke-width:2.09800005;stroke-linecap:butt;stroke-linejoin:miter;stroke-miterlimit:4;stroke-opacity:1;stroke-dasharray:none" />
    <path
       sodipodi:nodetypes="ccc"
       id="path2854"
       d="m 641.00906,5.7151509 c 5.03298,4.18562 10.06595,0.65588 15.09893,-1.99863 8.03339,6.24064 14.61948,0.90138 21.53818,-1.77656"
       style="fill:none;stroke:#000000;stroke-width:2.09800005;stroke-linecap:butt;stroke-linejoin:miter;stroke-miterlimit:4;stroke-opacity:1;stroke-dasharray:none" />
    <path
       sodipodi:nodetypes="csccc"
       id="path2856"
       d="m 655.66391,1.0516809 c 2.96713,4.57539 7.85884,4.15958 10.88011,1.11035 2.55229,-2.57590995 1.03472,-4.24204 1.11022,-5.77383 -2.39703,-4.00995 -5.42326,-5.16398 -9.54786,-1.33242 -1.14707,1.77666 -2.44786,3.45085 -2.44247,5.9959 z"
       style="fill:none;stroke:#000000;stroke-width:2.09800005;stroke-linecap:butt;stroke-linejoin:miter;stroke-miterlimit:4;stroke-opacity:1;stroke-dasharray:none" />
    <path
       sodipodi:nodetypes="cszzcz"
       id="path2858"
       d="m 646.46422,6.7928809 c 0,0.59465 4.6049,1.37072 7.94131,-2.19207 1.65158,-1.76365 1.53323,-6.78913 -1.61316,-7.15621 -3.14637,-0.36707 -2.73953,-1.19002 -6.44583,0.9349 -3.70629,2.12492005 -1.54909,5.82334 0.11768,8.41339 l 0,-10e-6 z"
       style="fill:none;stroke:#000000;stroke-width:2.09800005;stroke-linecap:butt;stroke-linejoin:miter;stroke-miterlimit:4;stroke-opacity:1;stroke-dasharray:none" />
    <path
       transform="matrix(0.99782653,0,0,0.99794788,186.78743,-371.14397)"
       d="m 466.41587,373.82541 c 0,0.74601 -0.62715,1.35077 -1.40079,1.35077 -0.77364,0 -1.4008,-0.60476 -1.4008,-1.35077 0,-0.74601 0.62716,-1.35077 1.4008,-1.35077 0.77364,0 1.40079,0.60476 1.40079,1.35077 z"
       sodipodi:ry="1.35077"
       sodipodi:rx="1.4007984"
       sodipodi:cy="373.82541"
       sodipodi:cx="465.01508"
       id="path2860"
       style="fill:#000000;fill-opacity:1;stroke:none"
       sodipodi:type="arc" />
    <path
       transform="matrix(1.525892,0,0,1.5831727,-70.760639,-586.54971)"
       d="m 479.12312,370.54852 c 0,0.51116 -0.45917,0.92553 -1.02559,0.92553 -0.56641,0 -1.02558,-0.41437 -1.02558,-0.92553 0,-0.51115 0.45917,-0.92552 1.02558,-0.92552 0.56642,0 1.02559,0.41437 1.02559,0.92552 z"
       sodipodi:ry="0.92552757"
       sodipodi:rx="1.0255846"
       sodipodi:cy="370.54852"
       sodipodi:cx="478.09753"
       id="path2862"
       style="fill:#000000;fill-opacity:1;stroke:none"
       sodipodi:type="arc" />
    <path
       id="path2864"
       d="m 631.55559,-47.509559 c 0.6651,-0.33258 7.48232,-2.16182 7.48232,-2.16182 l -5.48704,-4.32364"
       style="fill:none;stroke:#000000;stroke-width:0.99788719px;stroke-linecap:butt;stroke-linejoin:miter;stroke-opacity:1" />
    <path
       sodipodi:nodetypes="cc"
       id="path2866"
       d="m 645.28849,-43.015249 c 4.9439,-0.37914 1.67727,-3.75479 2.89662,-5.25143"
       style="fill:none;stroke:#000000;stroke-width:0.99788719px;stroke-linecap:butt;stroke-linejoin:miter;stroke-opacity:1" />
    <path
       sodipodi:nodetypes="cc"
       id="path2868"
       d="m 648.98164,-57.609749 -1.86415,4.28427"
       style="fill:none;stroke:#000000;stroke-width:0.99788719px;stroke-linecap:butt;stroke-linejoin:miter;stroke-opacity:1" />
    <path
       sodipodi:nodetypes="cc"
       id="path2870"
       d="m 620.01488,110.30772 c 3.58847,2.2703 5.93973,5.2828 4.65567,10.4766"
       style="fill:none;stroke:#000000;stroke-width:0.99788719px;stroke-linecap:butt;stroke-linejoin:miter;stroke-opacity:1" />
    <path
       id="path2872"
       d="m 615.02667,106.98192 2.32783,4.8225"
       style="fill:none;stroke:#000000;stroke-width:0.99788719px;stroke-linecap:butt;stroke-linejoin:miter;stroke-opacity:1" />
    <path
       id="path2880"
       d="m 558.82616,47.282361 12.30425,5.32141"
       style="fill:none;stroke:#000000;stroke-width:0.99788719px;stroke-linecap:butt;stroke-linejoin:miter;stroke-opacity:1" />
    <path
       id="path2882"
       d="m 578.94056,34.477721 c 0.66509,-1.66294 13.96699,-20.28786 13.96699,-20.28786 l -1.99529,9.47876 13.46818,-20.2878601"
       style="fill:none;stroke:#000000;stroke-width:2.09800005;stroke-linecap:butt;stroke-linejoin:miter;stroke-miterlimit:4;stroke-opacity:1;stroke-dasharray:none" />
    <path
       sodipodi:nodetypes="cc"
       id="path2884"
       d="m 599.30575,30.987741 c 39.60185,-26.9717501 76.52871,-16.48893 112.96223,0.9014"
       style="fill:none;stroke:#000000;stroke-width:2.09800005;stroke-linecap:butt;stroke-linejoin:miter;stroke-miterlimit:4;stroke-opacity:1;stroke-dasharray:none" />
    <path
       id="path2886"
       d="m 619.73509,-23.096509 8.41207,8.11264"
       style="fill:none;stroke:#000000;stroke-width:0.99788719px;stroke-linecap:butt;stroke-linejoin:miter;stroke-opacity:1" />
    <path
       id="path2888"
       d="m 626.04415,-29.406329 4.20604,10.81684"
       style="fill:none;stroke:#000000;stroke-width:0.99788719px;stroke-linecap:butt;stroke-linejoin:miter;stroke-opacity:1" />
    <path
       sodipodi:nodetypes="cc"
       id="path2968"
       d="m 746.10422,22.715787 c 3.31036,8.722198 1.38691,13.955191 -2.15579,18.108682"
       style="fill:none;stroke:#000000;stroke-width:1px;stroke-linecap:butt;stroke-linejoin:miter;stroke-opacity:1" />
    <path
       sodipodi:nodetypes="cc"
       id="path2970"
       d="m 734.03177,45.567221 c 1.64009,11.24184 -1.99776,13.24727 -4.74275,16.8152"
       style="fill:none;stroke:#000000;stroke-width:1px;stroke-linecap:butt;stroke-linejoin:miter;stroke-opacity:1" />
    <path
       sodipodi:nodetypes="csssscssc"
       id="path2972"
       d="m 687.03543,115.41499 -15.92331,1.45445 c -7.32522,0.6691 -1.15938,-8.0426 -1.63022,-12.35003 -0.13456,-1.23105 -5.2979,-8.506579 -5.2979,-8.506579 -2.43369,-2.59594 4.76696,-5.39792 5.12954,-8.93773 0.36411,-3.55481 -6.5692,-8.15505 -6.5692,-8.15505 0,0 -0.38784,-7.9756 1.43966,-10.93256 1.36214,-2.20399 4.01595,-3.47286 6.46738,-4.31159 3.81717,-1.30601 12.07246,-0.86232 12.07246,-0.86232"
       style="fill:none;stroke:#000000;stroke-width:1.5;stroke-linecap:butt;stroke-linejoin:miter;stroke-miterlimit:4;stroke-opacity:1;stroke-dasharray:none" />
    <path
       sodipodi:nodetypes="cccc"
       id="path2974"
       d="m 663.40472,79.461561 -5.70119,0 c -0.37913,6.22733 0.72185,12.40201 -0.29237,19.00399 l 8.33252,0.14618"
       style="fill:none;stroke:#000000;stroke-width:1.5;stroke-linecap:butt;stroke-linejoin:miter;stroke-miterlimit:4;stroke-opacity:1;stroke-dasharray:none" />
    <path
       sodipodi:nodetypes="cccccccc"
       id="path2976"
       d="m 667.79026,101.6816 -11.54858,1e-5 c -0.53285,2.90091 -0.99239,5.83846 -3.8008,7.60159 l -20.7582,1.0233 c -8.24885,-11.017359 -7.89805,-24.371479 -8.04015,-37.277059 11.50927,1.39103 23.46962,2.88225 34.20718,-1.9004 0.0279,1.45701 -0.29237,4.82408 -0.29237,4.82408 l 4.97027,-0.58473"
       style="fill:none;stroke:#000000;stroke-width:1.5;stroke-linecap:butt;stroke-linejoin:miter;stroke-miterlimit:4;stroke-opacity:1;stroke-dasharray:none" />
    <path
       sodipodi:nodetypes="cssss"
       id="path2978"
       d="m 633.58308,66.158761 c 0,0 -1.85497,-3.7116 -1.79853,-5.7046 0.063,-2.22676 2.26361,-4.02452 2.36691,-6.24978 0.10606,-2.28484 -1.8329,-4.32738 -1.82536,-6.61467 0.007,-2.07509 1.69553,-5.989952 1.69553,-5.989952"
       style="fill:none;stroke:#000000;stroke-width:1px;stroke-linecap:butt;stroke-linejoin:miter;stroke-opacity:1" />
    <path
       sodipodi:nodetypes="cssss"
       id="path2980"
       d="m 640.59994,66.304951 c 0,0 1.33583,-2.89881 1.0958,-4.38676 -0.25648,-1.58993 -2.57552,-2.47099 -2.58548,-4.08144 -0.0109,-1.75911 2.46548,-2.75999 2.76875,-4.49279 0.27751,-1.58564 -0.98671,-4.72734 -0.98671,-4.72734"
       style="fill:none;stroke:#000000;stroke-width:1px;stroke-linecap:butt;stroke-linejoin:miter;stroke-opacity:1" />
    <path
       sodipodi:nodetypes="csssss"
       id="path2982"
       d="m 647.47061,64.258361 c 0,-0.20964 2.74402,-2.39701 1.90165,-3.37615 0,0 -2.61285,-1.7996 -2.75258,-3.19951 -0.19446,-1.94825 2.94434,-3.16534 2.87507,-5.12204 -0.0559,-1.57947 -2.38282,-2.39567 -2.60737,-3.9601 -0.25987,-1.81046 1.60652,-5.24659 1.60652,-5.24659"
       style="fill:none;stroke:#000000;stroke-width:1px;stroke-linecap:butt;stroke-linejoin:miter;stroke-opacity:1" />
    <path
       sodipodi:nodetypes="cc"
       id="path2984"
       d="m 623.78871,72.737061 c 8.50405,-2.27812 18.33687,-3.88696 34.20719,-1.90039"
       style="fill:none;stroke:#000000;stroke-width:1.5;stroke-linecap:butt;stroke-linejoin:miter;stroke-miterlimit:4;stroke-opacity:1;stroke-dasharray:none" />
    <path
       sodipodi:nodetypes="cssccc"
       id="path2988"
       d="m 647.26022,83.845891 -8.54002,0.0252 c -2.4807,0.007 -4.5761,3.38671 -4.57403,4.12859 l 0.0285,10.20004 c 1.94481,2.460299 9.3842,5.891499 13.44132,0.6835 l 0.0518,-3.55182"
       style="fill:none;stroke:#000000;stroke-width:0.88469499px;stroke-linecap:butt;stroke-linejoin:miter;stroke-opacity:1" />
    <rect
       rx="0"
       ry="0.39082649"
       y="82.112297"
       x="647.3833"
       height="3.9082649"
       width="0.015746165"
       id="rect2992"
       style="fill:#800080;fill-opacity:1;stroke:#000000;stroke-width:1.01226771;stroke-linejoin:miter;stroke-miterlimit:4;stroke-opacity:1;stroke-dasharray:none;stroke-dashoffset:0.0415" />
    <rect
       transform="matrix(-0.00781006,0.9999695,-0.99998158,-0.00606976,0,0)"
       style="fill:#800080;fill-opacity:1;stroke:#000000;stroke-width:1.01226842;stroke-linejoin:miter;stroke-miterlimit:4;stroke-opacity:1;stroke-dasharray:none;stroke-dashoffset:0.0415"
       id="rect2994"
       width="0.013881412"
       height="4.4332867"
       x="91.243126"
       y="-650.65369"
       ry="0.44332865"
       rx="0" />
    <path
       id="path2840"
       d="m 632.99253,78.368971 c 5.38048,-0.0449 10.76097,-0.0896 16.14143,-0.13461 2.70789,3.39283 5.41576,6.78566 8.12364,10.17849 -5.34564,6.79 -10.69129,13.580069 -16.03694,20.370169 -5.3904,-6.7004 -10.7808,-13.401039 -16.1712,-20.101549 2.64769,-3.4375 5.29538,-6.875 7.94307,-10.3125 z"
       style="fill:#ff0000;stroke:#000000;stroke-width:0.18800403px;stroke-linecap:butt;stroke-linejoin:miter;stroke-opacity:1" />
    <path
       style="fill:#ffffff;stroke:#000000;stroke-width:0.17295147px;stroke-linecap:butt;stroke-linejoin:miter;stroke-opacity:1"
       d="m 634.13104,79.117491 c 4.9154,-0.0414 9.8308,-0.0826 14.7462,-0.12415 2.4739,3.14306 4.94778,6.28611 7.42166,9.42915 -4.88343,6.28977 -9.76688,12.579629 -14.65031,18.869329 -4.9246,-6.2071 -9.84921,-12.414389 -14.77383,-18.621609 2.41876,-3.18425 4.83752,-6.36848 7.25628,-9.55272 z"
       id="path2861" />
    <text
       transform="matrix(1.0005329,-0.00607954,0.00708404,0.99942434,0,0)"
       id="text2856"
       y="103.37823"
       x="631.31506"
       style="font-size:29.28629494px;font-style:normal;font-variant:normal;font-weight:normal;font-stretch:normal;fill:#000000;fill-opacity:1;stroke:none;font-family:Old London;-inkscape-font-specification:Old London"
       xml:space="preserve"><tspan
         y="103.37823"
         x="631.31506"
         id="tspan2858"
         sodipodi:role="line">G</tspan></text>
  </g>
  <text
     xml:space="preserve"
     style="font-size:20px;font-style:italic;font-variant:normal;font-weight:bold;font-stretch:normal;fill:#000000;fill-opacity:1;stroke:none;font-family:URW Chancery L;-inkscape-font-specification:URW Chancery L Bold Italic"
     x="552.1402"
     y="104.7591"
     id="text2822"><tspan
       sodipodi:role="line"
       id="tspan2824"
       x="552.1402"
       y="104.7591">What else ?</tspan></text>
</svg>
