<?xml version="1.0" encoding="UTF-8" standalone="no"?>
<!-- Created with Inkscape (http://www.inkscape.org/) -->

<svg
   xmlns:dc="http://purl.org/dc/elements/1.1/"
   xmlns:cc="http://creativecommons.org/ns#"
   xmlns:rdf="http://www.w3.org/1999/02/22-rdf-syntax-ns#"
   xmlns:svg="http://www.w3.org/2000/svg"
   xmlns="http://www.w3.org/2000/svg"
   xmlns:xlink="http://www.w3.org/1999/xlink"
   xmlns:sodipodi="http://sodipodi.sourceforge.net/DTD/sodipodi-0.dtd"
   xmlns:inkscape="http://www.inkscape.org/namespaces/inkscape"
   id="svg2"
   version="1.1"
   inkscape:version="0.47 r22583"
   width="794"
   height="227"
   sodipodi:docname="teteGV.png">
  <metadata
     id="metadata8">
    <rdf:RDF>
      <cc:Work
         rdf:about="">
        <dc:format>image/svg+xml</dc:format>
        <dc:type
           rdf:resource="http://purl.org/dc/dcmitype/StillImage" />
        <dc:title></dc:title>
      </cc:Work>
    </rdf:RDF>
  </metadata>
  <defs
     id="defs6">
    <inkscape:perspective
       sodipodi:type="inkscape:persp3d"
       inkscape:vp_x="0 : 0.5 : 1"
       inkscape:vp_y="0 : 1000 : 0"
       inkscape:vp_z="1 : 0.5 : 1"
       inkscape:persp3d-origin="0.5 : 0.33333333 : 1"
       id="perspective10" />
  </defs>
  <sodipodi:namedview
     pagecolor="#ffffff"
     bordercolor="#666666"
     borderopacity="1"
     objecttolerance="10"
     gridtolerance="10"
     guidetolerance="10"
     inkscape:pageopacity="0"
     inkscape:pageshadow="2"
     inkscape:window-width="640"
     inkscape:window-height="484"
     id="namedview4"
     showgrid="false"
     inkscape:zoom="0.67884131"
     inkscape:cx="397"
     inkscape:cy="113.5"
     inkscape:window-x="0"
     inkscape:window-y="25"
     inkscape:window-maximized="0"
     inkscape:current-layer="svg2" />
  <image
     xlink:href="file:///home/aluminium95/Sites/Journal/Images/teteGV.png"
     width="794"
     height="227"
     id="image12"
     x="0"
     y="0" />
  <g
     id="g2818">
    <path
       style="fill:#fefefe"
       d="M 0,113.5 0,0 397,0 794,0 794,113.5 794,227 397,227 0,227 0,113.5 z"
       id="path2822" />
    <path
       style="fill:#d1d1d1"
       d="M 0,68.224972 0,0 212.75,0.13914569 C 332.93635,0.21775163 420.93164,0.63585004 415,1.1001108 297.66734,10.283565 197.48813,30.977448 119,62.24443 83.867955,76.239833 41.372763,99.862243 21.480866,116.45378 17.64139,119.65624 11.2375,125.46546 7.25,129.36318 L 0,136.44994 0,68.224972 z M 785,20.95509 C 752.18328,13.845838 690.78684,5.5710809 641.5,1.6147579 625.49605,0.33009862 629.46561,0.2428161 709.25,0.12507211 L 794,0 l 0,11.5 c 0,6.325 -0.1125,11.45421 -0.25,11.398244 -0.1375,-0.05596 -4.075,-0.930385 -8.75,-1.943154 z"
       id="path2820" />
  </g>
</svg>
