<?xml version="1.0" encoding="UTF-8" standalone="no"?>
<!-- Created with Inkscape (http://www.inkscape.org/) -->

<svg
   xmlns:dc="http://purl.org/dc/elements/1.1/"
   xmlns:cc="http://creativecommons.org/ns#"
   xmlns:rdf="http://www.w3.org/1999/02/22-rdf-syntax-ns#"
   xmlns:svg="http://www.w3.org/2000/svg"
   xmlns="http://www.w3.org/2000/svg"
   xmlns:xlink="http://www.w3.org/1999/xlink"
   xmlns:sodipodi="http://sodipodi.sourceforge.net/DTD/sodipodi-0.dtd"
   xmlns:inkscape="http://www.inkscape.org/namespaces/inkscape"
   id="svg2"
   version="1.1"
   inkscape:version="0.47 r22583"
   width="300"
   height="100"
   sodipodi:docname="tV.svg">
  <metadata
     id="metadata8">
    <rdf:RDF>
      <cc:Work
         rdf:about="">
        <dc:format>image/svg+xml</dc:format>
        <dc:type
           rdf:resource="http://purl.org/dc/dcmitype/StillImage" />
        <dc:title />
      </cc:Work>
    </rdf:RDF>
  </metadata>
  <defs
     id="defs6">
    <inkscape:perspective
       sodipodi:type="inkscape:persp3d"
       inkscape:vp_x="0 : 0.5 : 1"
       inkscape:vp_y="0 : 1000 : 0"
       inkscape:vp_z="1 : 0.5 : 1"
       inkscape:persp3d-origin="0.5 : 0.33333333 : 1"
       id="perspective10" />
  </defs>
  <sodipodi:namedview
     pagecolor="#ffffff"
     bordercolor="#666666"
     borderopacity="1"
     objecttolerance="10"
     gridtolerance="10"
     guidetolerance="10"
     inkscape:pageopacity="0"
     inkscape:pageshadow="2"
     inkscape:window-width="946"
     inkscape:window-height="747"
     id="namedview4"
     showgrid="false"
     inkscape:zoom="9.2834731"
     inkscape:cx="276.92126"
     inkscape:cy="27.013971"
     inkscape:window-x="0"
     inkscape:window-y="25"
     inkscape:window-maximized="0"
     inkscape:current-layer="svg2"
     showguides="true"
     inkscape:guide-bbox="true">
    <sodipodi:guide
       orientation="1,0"
       position="0,144.15584"
       id="guide2815" />
  </sodipodi:namedview>
  <image
     xlink:href="file:///home/aluminium95/Sites/Journal/Images/teteVolet.png"
     width="300"
     height="100"
     id="image12"
     x="0"
     y="0" />
  <g
     id="g2818">
    <path
       style="fill:#fefefe"
       d="m 0,50 0,-50 150,0 150,0 0,50 0,50 -150,0 -150,0 0,-50 z"
       id="path2822" />
    <path
       style="fill:#d1d1d1"
       d="M 0.08691237,54 C 0.08691237,54 0,0.06048752 0,0.06048752 l 12.5,-0.02758668 137.5,0 149.99532,0.21543661 c 0,0 -0.0473,25.60580755 -0.0118,41.08569155 L 300,70.168059 296.25,67.257905 C 277.41142,52.638398 243.4529,40.868931 204.5,35.458857 c -24.63841,-3.421969 -66.17354,-3.417406 -91,0.01 C 54.68019,43.589192 11.174961,65.453433 1.5193206,91.746515 0.30861596,95.043361 0.08691237,54 0.08691237,54 z"
       id="path2820"
       sodipodi:nodetypes="ccccccccsssc" />
  </g>
</svg>
